<svg width="19" height="21" viewBox="0 0 19 21" fill="none" xmlns="http://www.w3.org/2000/svg">
<path d="M8 0.133789L15.298 2.41379C15.5015 2.47733 15.6794 2.60427 15.8057 2.77608C15.932 2.94788 16.0001 3.15556 16 3.36879V5.13379H18C18.2652 5.13379 18.5196 5.23915 18.7071 5.42668C18.8946 5.61422 19 5.86857 19 6.13379V14.1338C19 14.399 18.8946 14.6534 18.7071 14.8409C18.5196 15.0284 18.2652 15.1338 18 15.1338L14.78 15.1348C14.393 15.6448 13.923 16.0948 13.38 16.4648L8 20.1338L2.62 16.4658C1.81252 15.9152 1.15175 15.1758 0.69514 14.3117C0.238528 13.4476 -0.000101223 12.4851 3.22098e-08 11.5078V3.36879C0.000120606 3.15573 0.0682866 2.94828 0.194562 2.77667C0.320838 2.60507 0.498622 2.47828 0.702 2.41479L8 0.133789ZM8 2.22779L2 4.10379V11.5078C1.99986 12.12 2.14025 12.7241 2.41036 13.2735C2.68048 13.8229 3.07311 14.303 3.558 14.6768L3.747 14.8128L8 17.7138L11.782 15.1338H7C6.73478 15.1338 6.48043 15.0284 6.29289 14.8409C6.10536 14.6534 6 14.399 6 14.1338V6.13379C6 5.86857 6.10536 5.61422 6.29289 5.42668C6.48043 5.23915 6.73478 5.13379 7 5.13379H14V4.10379L8 2.22779ZM8 10.1338V13.1338H17V10.1338H8ZM8 8.13379H17V7.13379H8V8.13379Z" fill="#054168"/>
</svg>
