<svg width="65" height="66" viewBox="0 0 65 66" fill="none" xmlns="http://www.w3.org/2000/svg">
<path d="M0 16.5C0 14.312 0.856024 12.2135 2.37976 10.6664C3.90349 9.11919 5.97012 8.25 8.125 8.25H56.875C59.0299 8.25 61.0965 9.11919 62.6202 10.6664C64.144 12.2135 65 14.312 65 16.5V49.5C65 51.688 64.144 53.7865 62.6202 55.3336C61.0965 56.8808 59.0299 57.75 56.875 57.75H8.125C5.97012 57.75 3.90349 56.8808 2.37976 55.3336C0.856024 53.7865 0 51.688 0 49.5V16.5ZM8.125 12.375C7.04756 12.375 6.01425 12.8096 5.25238 13.5832C4.49051 14.3568 4.0625 15.406 4.0625 16.5V20.625H60.9375V16.5C60.9375 15.406 60.5095 14.3568 59.7476 13.5832C58.9858 12.8096 57.9524 12.375 56.875 12.375H8.125ZM60.9375 28.875H4.0625V49.5C4.0625 50.594 4.49051 51.6432 5.25238 52.4168C6.01425 53.1904 7.04756 53.625 8.125 53.625H56.875C57.9524 53.625 58.9858 53.1904 59.7476 52.4168C60.5095 51.6432 60.9375 50.594 60.9375 49.5V28.875Z" fill="black"/>
<path d="M8.125 41.25C8.125 40.156 8.55301 39.1068 9.31488 38.3332C10.0767 37.5596 11.1101 37.125 12.1875 37.125H16.25C17.3274 37.125 18.3608 37.5596 19.1226 38.3332C19.8845 39.1068 20.3125 40.156 20.3125 41.25V45.375C20.3125 46.469 19.8845 47.5182 19.1226 48.2918C18.3608 49.0654 17.3274 49.5 16.25 49.5H12.1875C11.1101 49.5 10.0767 49.0654 9.31488 48.2918C8.55301 47.5182 8.125 46.469 8.125 45.375V41.25Z" fill="black"/>
</svg>
