<svg width="38" height="33" viewBox="0 0 38 33" fill="none" xmlns="http://www.w3.org/2000/svg">
<path d="M24.5483 16.4992C24.5483 17.812 23.9636 19.0711 22.9227 19.9994C21.8819 20.9277 20.4702 21.4492 18.9983 21.4492C17.5263 21.4492 16.1147 20.9277 15.0738 19.9994C14.033 19.0711 13.4483 17.812 13.4483 16.4992C13.4483 16.217 13.4816 15.9415 13.5389 15.6742H11.5983V22.2692C11.5983 22.7279 12.0145 23.0992 12.5288 23.0992H25.4696C25.7161 23.0987 25.9523 23.0111 26.1264 22.8555C26.3005 22.6999 26.3983 22.4891 26.3983 22.2692V15.6742H24.4576C24.515 15.9415 24.5483 16.217 24.5483 16.4992ZM18.9983 19.7992C19.4843 19.7991 19.9655 19.7136 20.4145 19.5476C20.8635 19.3816 21.2714 19.1384 21.615 18.8318C21.9585 18.5252 22.231 18.1613 22.4169 17.7608C22.6028 17.3602 22.6984 16.931 22.6983 16.4975C22.6982 16.0641 22.6023 15.6349 22.4162 15.2344C22.2301 14.834 21.9574 14.4702 21.6137 14.1637C21.2699 13.8573 20.8618 13.6143 20.4128 13.4485C19.9637 13.2827 19.4824 13.1974 18.9964 13.1975C18.0149 13.1977 17.0736 13.5457 16.3798 14.1649C15.6859 14.7841 15.2962 15.6237 15.2964 16.4992C15.2967 17.3746 15.6868 18.2141 16.3811 18.833C17.0753 19.4518 18.0167 19.7994 18.9983 19.7992ZM23.4383 13.0342H25.6564C25.8038 13.0342 25.9452 12.9821 26.0495 12.8893C26.1539 12.7965 26.2128 12.6706 26.2133 12.5392V10.5608C26.2133 10.4291 26.1546 10.3028 26.0502 10.2096C25.9458 10.1165 25.8041 10.0642 25.6564 10.0642H23.4383C23.2906 10.0642 23.149 10.1165 23.0445 10.2096C22.9401 10.3028 22.8814 10.4291 22.8814 10.5608V12.5392C22.8833 12.8114 23.133 13.0342 23.4383 13.0342ZM18.9983 0.65918C14.288 0.65918 9.77071 2.32803 6.44006 5.29861C3.10942 8.26918 1.23828 12.2982 1.23828 16.4992C1.23828 20.7002 3.10942 24.7292 6.44006 27.6997C9.77071 30.6703 14.288 32.3392 18.9983 32.3392C21.3306 32.3392 23.64 31.9295 25.7947 31.1334C27.9495 30.3374 29.9073 29.1706 31.5565 27.6997C33.2057 26.2289 34.5139 24.4827 35.4064 22.5609C36.2989 20.6391 36.7583 18.5793 36.7583 16.4992C36.7583 14.419 36.2989 12.3593 35.4064 10.4375C34.5139 8.51568 33.2057 6.76949 31.5565 5.29861C29.9073 3.82773 27.9495 2.66096 25.7947 1.86493C23.64 1.06889 21.3306 0.65918 18.9983 0.65918ZM28.2483 22.916C28.2483 23.9242 27.3233 24.7492 26.1929 24.7492H11.8036C10.6733 24.7492 9.74828 23.9242 9.74828 22.916V10.0823C9.74828 9.07418 10.6733 8.24918 11.8036 8.24918H26.1929C27.3233 8.24918 28.2483 9.07418 28.2483 10.0823V22.916Z" fill="white"/>
</svg>
