<svg width="24" height="25" viewBox="0 0 24 25" fill="none" xmlns="http://www.w3.org/2000/svg">
<path d="M5 2.54053H19C19.2652 2.54053 19.5196 2.64588 19.7071 2.83342C19.8946 3.02096 20 3.27531 20 3.54053V21.5405C20 21.8057 19.8946 22.0601 19.7071 22.2476C19.5196 22.4352 19.2652 22.5405 19 22.5405H5C4.73478 22.5405 4.48043 22.4352 4.29289 22.2476C4.10536 22.0601 4 21.8057 4 21.5405V3.54053C4 3.27531 4.10536 3.02096 4.29289 2.83342C4.48043 2.64588 4.73478 2.54053 5 2.54053ZM9 11.5405V8.54053L4 12.5405L9 16.5405V13.5405H15V11.5405H9Z" fill="#054168"/>
</svg>
