<svg width="26" height="26" viewBox="0 0 26 26" fill="none" xmlns="http://www.w3.org/2000/svg">
<path d="M22.7487 17.3332V4.33317H3.2487V17.3332H22.7487ZM22.7487 2.1665C23.3233 2.1665 23.8744 2.39478 24.2808 2.80111C24.6871 3.20743 24.9154 3.75853 24.9154 4.33317V17.3332C24.9154 17.9078 24.6871 18.4589 24.2808 18.8652C23.8744 19.2716 23.3233 19.4998 22.7487 19.4998H15.1654V21.6665H17.332V23.8332H8.66536V21.6665H10.832V19.4998H3.2487C2.67406 19.4998 2.12296 19.2716 1.71663 18.8652C1.3103 18.4589 1.08203 17.9078 1.08203 17.3332V4.33317C1.08203 3.13067 2.0462 2.1665 3.2487 2.1665H22.7487ZM5.41536 6.49984H15.1654V11.9165H5.41536V6.49984ZM16.2487 6.49984H20.582V8.6665H16.2487V6.49984ZM20.582 9.74984V15.1665H16.2487V9.74984H20.582ZM5.41536 12.9998H9.7487V15.1665H5.41536V12.9998ZM10.832 12.9998H15.1654V15.1665H10.832V12.9998Z" fill="black"/>
</svg>
