<svg width="26" height="27" viewBox="0 0 26 27" fill="none" xmlns="http://www.w3.org/2000/svg">
<path d="M9.75 8.33802H5.50875C6.5596 6.72304 8.10421 5.49089 9.91235 4.82524C11.7205 4.1596 13.6953 4.0961 15.5425 4.64422C17.3897 5.19234 19.0102 6.32273 20.1627 7.86688C21.3151 9.41103 21.9376 11.2863 21.9375 13.213H23.5625C23.5647 11.04 22.8967 8.91914 21.6494 7.13967C20.4022 5.36021 18.6365 4.00874 16.593 3.26954C14.5496 2.53035 12.3279 2.4394 10.2308 3.00911C8.13379 3.57882 6.26351 4.78145 4.875 6.45302V3.46302H3.25V9.96302H9.75V8.33802Z" fill="#054168"/>
<path d="M16.25 18.0879H20.4913C19.4404 19.7029 17.8958 20.935 16.0877 21.6007C14.2795 22.2663 12.3047 22.3298 10.4575 21.7817C8.61034 21.2336 6.98976 20.1032 5.83735 18.559C4.68493 17.0149 4.06238 15.1397 4.06251 13.2129H2.43751C2.43527 15.3859 3.10332 17.5068 4.35056 19.2862C5.5978 21.0657 7.36354 22.4172 9.40699 23.1564C11.4504 23.8956 13.6722 23.9865 15.7692 23.4168C17.8662 22.8471 19.7365 21.6445 21.125 19.9729V22.9629H22.75V16.4629H16.25V18.0879Z" fill="#054168"/>
</svg>
