<svg width="26" height="27" viewBox="0 0 26 27" fill="none" xmlns="http://www.w3.org/2000/svg">
<path d="M9.75 8.46205H5.50875C6.5596 6.84706 8.10421 5.61491 9.91235 4.94927C11.7205 4.28362 13.6953 4.22013 15.5425 4.76825C17.3897 5.31637 19.0102 6.44675 20.1627 7.9909C21.3151 9.53505 21.9376 11.4103 21.9375 13.337H23.5625C23.5647 11.164 22.8967 9.04316 21.6494 7.2637C20.4022 5.48423 18.6365 4.13276 16.593 3.39357C14.5496 2.65437 12.3279 2.56343 10.2308 3.13313C8.13379 3.70284 6.26351 4.90548 4.875 6.57705V3.58705H3.25V10.087H9.75V8.46205Z" fill="black"/>
<path d="M16.25 18.2119H20.4913C19.4404 19.8269 17.8958 21.0591 16.0877 21.7247C14.2795 22.3903 12.3047 22.4538 10.4575 21.9057C8.61034 21.3576 6.98976 20.2272 5.83735 18.6831C4.68493 17.1389 4.06238 15.2637 4.06251 13.3369H2.43751C2.43527 15.51 3.10332 17.6308 4.35056 19.4103C5.5978 21.1897 7.36354 22.5412 9.40699 23.2804C11.4504 24.0196 13.6722 24.1105 15.7692 23.5408C17.8662 22.9711 19.7365 21.7685 21.125 20.0969V23.0869H22.75V16.5869H16.25V18.2119Z" fill="black"/>
</svg>
