<svg width="92" height="100" viewBox="0 0 92 100" fill="none" xmlns="http://www.w3.org/2000/svg">
<path d="M92 67.2192L30.5128 0H0.527245L92 100V67.2192Z" fill="#054168"/>
<path d="M41.0212 20.0887C41.534 20.6496 41.8811 21.2187 42.0624 21.796C42.2498 22.3681 42.2648 22.9175 42.1074 23.4441C41.9562 23.9656 41.6379 24.4288 41.1525 24.8335C40.6671 25.2383 40.1437 25.4771 39.5822 25.5499C39.0207 25.6227 38.4528 25.5344 37.8783 25.2851C37.3099 25.0306 36.7693 24.623 36.2565 24.0621L35.2687 22.9816L33.5821 24.388L31.9789 22.6345L38.4301 17.2547L41.0212 20.0887ZM37.5971 22.7569C37.9263 23.117 38.2545 23.322 38.5816 23.3718C38.9149 23.4165 39.232 23.3133 39.5331 23.0623C39.8341 22.8112 39.9839 22.525 39.9825 22.2037C39.981 21.8823 39.8156 21.5415 39.4863 21.1814L38.5956 20.2072L36.7064 21.7827L37.5971 22.7569ZM43.446 32.7604L41.0492 30.139L39.3505 30.6971L37.7148 28.9081L46.6681 26.265L48.2471 27.9919L44.306 36.1171L42.638 34.2927L43.446 32.7604ZM44.3219 31.1247L45.6576 28.6061L42.8644 29.5306L44.3219 31.1247ZM49.7622 38.7804L48.8877 37.824L47.1735 39.2534L45.5703 37.4999L52.0215 32.1201L54.6126 34.9542C55.1255 35.5151 55.4725 36.0841 55.6538 36.6614C55.8412 37.2335 55.8562 37.7829 55.6988 38.3095C55.5476 38.8311 55.2293 39.2942 54.7439 39.699C54.277 40.0884 53.7713 40.3228 53.2267 40.4023C52.6937 40.4826 52.1508 40.4098 51.5979 40.1841L50.793 43.2122L49.0764 41.3347L49.7622 38.7804ZM53.1245 37.9277C53.4255 37.6767 53.5753 37.3904 53.5739 37.0691C53.5724 36.7477 53.4071 36.407 53.0778 36.0468L52.1871 35.0726L50.2978 36.6481L51.1885 37.6223C51.5178 37.9825 51.846 38.1874 52.173 38.2373C52.5063 38.2819 52.8234 38.1788 53.1245 37.9277ZM56.901 45.3804L55.5738 45.3321L53.961 46.6771L52.3739 44.9413L58.8251 39.5615L60.4122 41.2973L57.7303 43.5338L62.6066 43.6974L64.3718 45.6281L59.199 45.4776L58.042 51.1407L56.1796 49.1037L56.901 45.3804ZM65.7236 47.1067L67.3269 48.8602L60.8757 54.2399L59.2724 52.4864L65.7236 47.1067ZM74.6701 56.8917L68.2188 62.2714L66.899 60.8278L67.8345 55.2246L64.3969 58.0913L62.826 56.3731L69.2773 50.9934L70.5971 52.437L69.6616 58.0402L73.0992 55.1736L74.6701 56.8917ZM77.321 65.7424L78.738 67.2923L76.0653 69.521C75.4772 69.3871 74.902 69.1488 74.3396 68.8061C73.7773 68.4634 73.2856 68.0618 72.8645 67.6013C72.2707 66.9518 71.8776 66.2494 71.6852 65.4942C71.4989 64.7338 71.5258 63.9934 71.7658 63.2729C72.0059 62.5525 72.4485 61.9232 73.0936 61.3853C73.7387 60.8473 74.4512 60.5133 75.2311 60.3832C76.0109 60.2532 76.7824 60.3331 77.5455 60.6228C78.3147 60.9075 79.0016 61.3805 79.6062 62.0418C80.1352 62.6204 80.5089 63.2245 80.7272 63.8541C80.9455 64.4837 81.0045 65.1108 80.9043 65.7355L78.8334 65.4957C78.9294 64.6769 78.7101 63.9752 78.1757 63.3907C77.6899 62.8593 77.1295 62.5722 76.4947 62.5292C75.866 62.4812 75.2721 62.6903 74.713 63.1565C74.3567 63.4537 74.1047 63.7939 73.957 64.1772C73.8155 64.5554 73.7863 64.9439 73.8695 65.3428C73.9588 65.7366 74.16 66.1047 74.4731 66.4471C74.7808 66.7837 75.1403 67.0406 75.5515 67.218L77.321 65.7424Z" fill="white"/>
</svg>
