<svg width="37" height="36" viewBox="0 0 37 36" fill="none" xmlns="http://www.w3.org/2000/svg">
<path d="M18.5 2.25C9.80234 2.25 2.75 9.30234 2.75 18C2.75 26.6977 9.80234 33.75 18.5 33.75C27.1977 33.75 34.25 26.6977 34.25 18C34.25 9.30234 27.1977 2.25 18.5 2.25ZM26.0691 14.1223C26.0797 14.2875 26.0797 14.4598 26.0797 14.6285C26.0797 19.7895 22.1492 25.7344 14.9668 25.7344C12.752 25.7344 10.6988 25.091 8.96914 23.9836C9.28555 24.0188 9.58789 24.0328 9.91133 24.0328C11.7395 24.0328 13.4199 23.4141 14.7594 22.3664C13.0437 22.3313 11.6023 21.2063 11.1102 19.6594C11.7113 19.7473 12.2527 19.7473 12.8715 19.5891C11.9881 19.4096 11.1941 18.9298 10.6244 18.2313C10.0546 17.5327 9.74429 16.6585 9.74609 15.757V15.7078C10.2629 15.9996 10.8711 16.1789 11.5074 16.2035C10.9725 15.847 10.5338 15.364 10.2302 14.7974C9.92667 14.2307 9.76762 13.5979 9.76719 12.9551C9.76719 12.2273 9.95703 11.5629 10.298 10.9863C11.2786 12.1934 12.5021 13.1806 13.8891 13.8838C15.2762 14.587 16.7957 14.9905 18.3488 15.068C17.7969 12.4137 19.7797 10.2656 22.1633 10.2656C23.2883 10.2656 24.3008 10.7367 25.0145 11.4961C25.8969 11.3309 26.7406 11.0004 27.493 10.5574C27.2012 11.4609 26.5895 12.2238 25.7773 12.7055C26.5648 12.6211 27.3242 12.4031 28.0273 12.0973C27.4965 12.8777 26.832 13.5703 26.0691 14.1223Z" fill="white"/>
</svg>
