<svg width="26" height="27" viewBox="0 0 26 27" fill="none" xmlns="http://www.w3.org/2000/svg">
<path d="M6.86562 11.1313L7.08338 11.0533L8.92775 7.59535C9.27416 6.9455 9.79069 6.40203 10.4221 6.02306C11.0535 5.6441 11.7761 5.44389 12.5125 5.44385H17.1584C18.0109 5.44415 18.8418 5.71268 19.5333 6.21139C20.2248 6.7101 20.7418 7.41372 21.0113 8.2226L21.8904 10.86C22.6269 11.1704 23.2555 11.6912 23.6974 12.3572C24.1394 13.0232 24.3751 13.8047 24.375 14.604V16.4126C24.375 17.5663 23.6893 18.5576 22.7013 19.0045C22.5735 19.7363 22.1989 20.4023 21.6398 20.8916C21.0807 21.3808 20.3708 21.6637 19.6285 21.6931C18.8861 21.7226 18.1561 21.4968 17.56 21.0534C16.9639 20.61 16.5377 19.9758 16.3524 19.2563H9.64762C9.46231 19.9758 9.03611 20.61 8.44 21.0534C7.84389 21.4968 7.11386 21.7226 6.37152 21.6931C5.62918 21.6637 4.91933 21.3808 4.36022 20.8916C3.80111 20.4023 3.42648 19.7363 3.29875 19.0045C2.79994 18.7793 2.3767 18.415 2.07982 17.9553C1.78293 17.4955 1.62501 16.9599 1.625 16.4126V15.8617C1.625 14.1441 2.70725 12.6117 4.32575 12.0348L6.7795 11.1622V11.1313H6.86562ZM19.4708 8.7361C19.3091 8.25067 18.9987 7.82842 18.5837 7.52918C18.1687 7.22995 17.67 7.0689 17.1584 7.06885H15.4375V11.1313H20.2686L19.4691 8.7361H19.4708ZM8.88388 11.1313H13.8125V7.06885H12.5125C12.0706 7.06869 11.637 7.18866 11.258 7.41593C10.879 7.6432 10.569 7.96921 10.361 8.3591L8.88225 11.1313H8.88388ZM21.125 18.4438C21.125 18.0129 20.9538 17.5995 20.649 17.2948C20.3443 16.9901 19.931 16.8188 19.5 16.8188C19.069 16.8188 18.6557 16.9901 18.351 17.2948C18.0462 17.5995 17.875 18.0129 17.875 18.4438C17.875 18.8748 18.0462 19.2882 18.351 19.5929C18.6557 19.8976 19.069 20.0688 19.5 20.0688C19.931 20.0688 20.3443 19.8976 20.649 19.5929C20.9538 19.2882 21.125 18.8748 21.125 18.4438ZM6.5 16.8188C6.06902 16.8188 5.6557 16.9901 5.35095 17.2948C5.0462 17.5995 4.875 18.0129 4.875 18.4438C4.875 18.8748 5.0462 19.2882 5.35095 19.5929C5.6557 19.8976 6.06902 20.0688 6.5 20.0688C6.93098 20.0688 7.3443 19.8976 7.64905 19.5929C7.95379 19.2882 8.125 18.8748 8.125 18.4438C8.125 18.0129 7.95379 17.5995 7.64905 17.2948C7.3443 16.9901 6.93098 16.8188 6.5 16.8188Z" fill="#054168"/>
</svg>
