<svg width="2420" height="1503" viewBox="0 0 2420 1503" fill="none" xmlns="http://www.w3.org/2000/svg">
<path d="M2082 670C2268.67 670 2420 520.015 2420 335C2420 149.985 2268.67 0 2082 0C1895.33 0 1744 149.985 1744 335C1744 520.015 1895.33 670 2082 670Z" fill="#DCAB4F"/>
<path d="M475 1503C737.335 1503 950 1290.34 950 1028C950 765.665 737.335 553 475 553C212.665 553 0 765.665 0 1028C0 1290.34 212.665 1503 475 1503Z" fill="#DCAB4F"/>
<path d="M454 676C531.32 676 594 613.32 594 536C594 458.68 531.32 396 454 396C376.68 396 314 458.68 314 536C314 613.32 376.68 676 454 676Z" fill="#DCAB4F"/>
<path d="M1527 927C1564.56 927 1595 896.555 1595 859C1595 821.445 1564.56 791 1527 791C1489.44 791 1459 821.445 1459 859C1459 896.555 1489.44 927 1527 927Z" fill="#DCAB4F"/>
<path fill-rule="evenodd" clip-rule="evenodd" d="M590.906 567.146C576.746 629.475 520.999 676 454.384 676C391.937 676 339.04 635.115 321 578.652C369.403 562.026 421.339 553 475.384 553C515.228 553 553.925 557.906 590.906 567.146Z" fill="#D3564C"/>
</svg>
