<svg width="1440" height="1431" viewBox="0 0 1440 1431" fill="none" xmlns="http://www.w3.org/2000/svg">
<g clip-path="url(#clip0)">
<path d="M1106 1464C1143.56 1464 1174 1433.56 1174 1396C1174 1358.44 1143.56 1328 1106 1328C1068.44 1328 1038 1358.44 1038 1396C1038 1433.56 1068.44 1464 1106 1464Z" fill="#DCAB4F"/>
<path d="M66 1910C328.335 1910 541 1697.34 541 1435C541 1172.66 328.335 960 66 960C-196.335 960 -409 1172.66 -409 1435C-409 1697.34 -196.335 1910 66 1910Z" fill="#DCAB4F"/>
<path d="M66 1100C143.32 1100 206 1037.32 206 960C206 882.68 143.32 820 66 820C-11.3199 820 -74 882.68 -74 960C-74 1037.32 -11.3199 1100 66 1100Z" fill="#DCAB4F"/>
<path fill-rule="evenodd" clip-rule="evenodd" d="M206.017 980.511C196.093 1048.11 137.86 1100 67.5083 1100C-2.84375 1100 -61.0762 1048.11 -71 980.511C-27.1792 967.174 19.3267 960 67.5083 960C115.69 960 162.196 967.174 206.017 980.511Z" fill="#D3564C"/>
<path d="M1444 753C1630.67 753 1782 603.015 1782 418C1782 232.985 1630.67 83 1444 83C1257.33 83 1106 232.985 1106 418C1106 603.015 1257.33 753 1444 753Z" fill="#DCAB4F"/>
</g>
<defs>
<clipPath id="clip0">
<rect width="1440" height="1431" fill="white"/>
</clipPath>
</defs>
</svg>
