<svg width="42" height="42" viewBox="0 0 42 42" fill="none" xmlns="http://www.w3.org/2000/svg">
<path d="M0 10.5C0 9.10761 0.553124 7.77226 1.53769 6.78769C2.52226 5.80312 3.85761 5.25 5.25 5.25H36.75C38.1424 5.25 39.4777 5.80312 40.4623 6.78769C41.4469 7.77226 42 9.10761 42 10.5V31.5C42 32.8924 41.4469 34.2277 40.4623 35.2123C39.4777 36.1969 38.1424 36.75 36.75 36.75H5.25C3.85761 36.75 2.52226 36.1969 1.53769 35.2123C0.553124 34.2277 0 32.8924 0 31.5V10.5ZM5.25 7.875C4.55381 7.875 3.88613 8.15156 3.39384 8.64384C2.90156 9.13613 2.625 9.80381 2.625 10.5V13.125H39.375V10.5C39.375 9.80381 39.0984 9.13613 38.6062 8.64384C38.1139 8.15156 37.4462 7.875 36.75 7.875H5.25ZM39.375 18.375H2.625V31.5C2.625 32.1962 2.90156 32.8639 3.39384 33.3562C3.88613 33.8484 4.55381 34.125 5.25 34.125H36.75C37.4462 34.125 38.1139 33.8484 38.6062 33.3562C39.0984 32.8639 39.375 32.1962 39.375 31.5V18.375Z" fill="#054168"/>
<path d="M5.25 26.25C5.25 25.5538 5.52656 24.8861 6.01884 24.3938C6.51113 23.9016 7.17881 23.625 7.875 23.625H10.5C11.1962 23.625 11.8639 23.9016 12.3562 24.3938C12.8484 24.8861 13.125 25.5538 13.125 26.25V28.875C13.125 29.5712 12.8484 30.2389 12.3562 30.7312C11.8639 31.2234 11.1962 31.5 10.5 31.5H7.875C7.17881 31.5 6.51113 31.2234 6.01884 30.7312C5.52656 30.2389 5.25 29.5712 5.25 28.875V26.25Z" fill="#054168"/>
</svg>
