<svg width="88" height="88" viewBox="0 0 88 88" fill="none" xmlns="http://www.w3.org/2000/svg">
<path d="M43.5556 0C34.9411 0 26.5201 2.55449 19.3574 7.34043C12.1947 12.1264 6.61211 18.9288 3.31549 26.8876C0.0188718 34.8463 -0.843673 43.6039 0.836927 52.0528C2.51753 60.5018 6.66579 68.2626 12.7571 74.354C18.8485 80.4453 26.6094 84.5936 35.0583 86.2742C43.5073 87.9548 52.2648 87.0923 60.2236 83.7956C68.1823 80.499 74.9847 74.9164 79.7707 67.7537C84.5566 60.591 87.1111 52.17 87.1111 43.5556C87.1111 32.0039 82.5223 20.9254 74.354 12.7571C66.1858 4.58888 55.1072 0 43.5556 0V0ZM43.5556 81.6667C36.0179 81.6667 28.6495 79.4315 22.3822 75.2438C16.1148 71.0561 11.23 65.1039 8.3455 58.14C5.46096 51.1762 4.70623 43.5133 6.17676 36.1204C7.64728 28.7276 11.277 21.9369 16.6069 16.6069C21.9369 11.277 28.7276 7.64726 36.1205 6.17674C43.5133 4.70621 51.1762 5.46094 58.1401 8.34548C65.104 11.23 71.0561 16.1148 75.2438 22.3822C79.4315 28.6495 81.6667 36.0179 81.6667 43.5556C81.6667 53.6632 77.6514 63.357 70.5042 70.5042C63.357 77.6514 53.6633 81.6667 43.5556 81.6667Z" fill="#054168"/>
<path d="M44 21V53" stroke="#054168" stroke-width="6" stroke-linecap="round"/>
<path d="M44 64V69" stroke="#054168" stroke-width="6" stroke-linecap="round"/>
</svg>
