<svg width="19" height="20" viewBox="0 0 19 20" fill="none" xmlns="http://www.w3.org/2000/svg">
<path d="M18 16.5114V9.85928C18 9.39648 17.9056 8.93854 17.7225 8.51351C17.5393 8.08848 17.2714 7.70531 16.935 7.38748L10.6679 1.46468C10.3523 1.16627 9.93437 1 9.5 1C9.06563 1 8.64774 1.16627 8.3321 1.46468L2.06505 7.38748C1.72864 7.70531 1.46066 8.08848 1.27752 8.51351C1.09439 8.93854 0.999951 9.39648 1 9.85928V16.5114C1 16.9623 1.17911 17.3947 1.49792 17.7135C1.81673 18.0323 2.24913 18.2114 2.7 18.2114H16.3C16.7509 18.2114 17.1833 18.0323 17.5021 17.7135C17.8209 17.3947 18 16.9623 18 16.5114Z" stroke="#054168" stroke-width="2" stroke-linecap="round" stroke-linejoin="round"/>
</svg>
