<svg width="107" height="22" viewBox="0 0 107 22" fill="none" xmlns="http://www.w3.org/2000/svg">
<path d="M82.8102 9.21103C82.6133 9.20838 82.42 9.2639 82.2546 9.37064C82.0891 9.47738 81.9589 9.63057 81.8802 9.81103L76.4102 21.751H77.0802C77.2922 21.7529 77.5002 21.6922 77.678 21.5766C77.8559 21.461 77.9957 21.2956 78.0802 21.101L82.6702 10.821C82.6824 10.7957 82.7016 10.7743 82.7255 10.7593C82.7494 10.7443 82.777 10.7364 82.8052 10.7364C82.8333 10.7364 82.8609 10.7443 82.8848 10.7593C82.9087 10.7743 82.9279 10.7957 82.9402 10.821L87.5202 21.101C87.6057 21.2948 87.7458 21.4595 87.9234 21.5749C88.101 21.6904 88.3083 21.7516 88.5202 21.751H89.2102L83.7302 9.81103C83.6521 9.63215 83.5234 9.48003 83.3599 9.37341C83.1964 9.26679 83.0053 9.21035 82.8102 9.21103Z" fill="black"/>
<path d="M36.7294 9.2104C36.5325 9.20775 36.3392 9.26328 36.1738 9.37001C36.0084 9.47675 35.8781 9.62995 35.7994 9.8104L30.3594 21.7504H31.0294C31.2412 21.7509 31.4486 21.6897 31.6262 21.5743C31.8038 21.4589 31.9439 21.2942 32.0294 21.1004L36.6094 10.8204C36.6203 10.7921 36.6395 10.7678 36.6645 10.7506C36.6894 10.7334 36.7191 10.7243 36.7494 10.7243C36.7797 10.7243 36.8093 10.7334 36.8343 10.7506C36.8593 10.7678 36.8785 10.7921 36.8894 10.8204L41.4694 21.1004C41.5549 21.2942 41.695 21.4589 41.8726 21.5743C42.0502 21.6897 42.2576 21.7509 42.4694 21.7504H43.1594L37.7294 9.8104C37.6464 9.61836 37.5053 9.45717 37.3259 9.34954C37.1465 9.2419 36.9379 9.19324 36.7294 9.2104Z" fill="black"/>
<path d="M54.3705 13.6009C54.3705 10.9009 52.4305 9.21094 49.2405 9.21094H44.7305V21.7209H45.0305C45.2957 21.7209 45.55 21.6156 45.7376 21.428C45.9251 21.2405 46.0305 20.9862 46.0305 20.7209V10.6009H49.1405C51.6505 10.6009 52.9805 11.7809 52.9805 13.7909C52.9805 15.8009 51.8005 16.7909 49.5505 16.9409C50.5505 18.3709 51.8305 20.2309 52.4805 21.1509C52.6038 21.3281 52.7684 21.4725 52.96 21.5718C53.1517 21.6711 53.3646 21.7223 53.5805 21.7209H54.5105L51.5005 17.6009C52.3564 17.3497 53.1037 16.8195 53.6237 16.0948C54.1437 15.37 54.4066 14.4922 54.3705 13.6009Z" fill="black"/>
<path d="M60.3401 14.6514L65.5501 9.21139H64.5501C64.364 9.20655 64.1791 9.24051 64.0069 9.3111C63.8347 9.38169 63.6791 9.48736 63.5501 9.62139L58.5801 14.8014C58.5035 14.8845 58.4609 14.9934 58.4609 15.1064C58.4609 15.2194 58.5035 15.3283 58.5801 15.4114L63.9601 21.3114C64.0861 21.4514 64.2404 21.563 64.4128 21.6388C64.5852 21.7147 64.7717 21.753 64.9601 21.7514H65.9601L60.3601 15.1414C60.2954 15.0774 60.2574 14.9912 60.2537 14.9003C60.25 14.8094 60.2809 14.7205 60.3401 14.6514Z" fill="black"/>
<path d="M89.2692 12.602C89.2692 11.352 90.2692 10.322 92.5892 10.322C93.4987 10.3316 94.3955 10.5362 95.2192 10.922C95.3284 10.9729 95.4469 11.0011 95.5673 11.0049C95.6877 11.0087 95.8077 10.988 95.9199 10.944C96.0321 10.9001 96.1342 10.8338 96.2201 10.7492C96.3059 10.6647 96.3736 10.5635 96.4192 10.452L96.4792 10.302C95.3186 9.56045 93.9664 9.17461 92.5892 9.19197C89.3892 9.19197 87.9492 10.792 87.9492 12.642C87.9492 17.292 95.6892 15.172 95.6892 18.642C95.6892 19.642 94.9992 20.512 93.4292 20.782C93.1611 20.8193 92.9121 20.9421 92.7192 21.132L91.8692 21.982H92.3192C95.5292 21.982 97.0092 20.402 97.0092 18.552C97.0092 13.992 89.2692 16.072 89.2692 12.602Z" fill="black"/>
<path d="M98.8803 12.6019C98.8803 11.3519 99.8803 10.3219 102.2 10.3219C103.113 10.3313 104.013 10.5359 104.84 10.9219C104.95 10.9714 105.068 10.9985 105.188 11.0015C105.308 11.0046 105.428 10.9837 105.539 10.9399C105.651 10.8961 105.753 10.8303 105.839 10.7465C105.925 10.6627 105.994 10.5625 106.04 10.4519L106.1 10.3019C104.935 9.56169 103.58 9.17605 102.2 9.19187C99.0103 9.19187 97.5703 10.7919 97.5703 12.6419C97.5703 17.2919 105.31 15.1719 105.31 18.6419C105.31 19.6419 104.65 20.4719 103.16 20.7619C102.819 20.8181 102.502 20.9748 102.25 21.2119L101.48 21.9819H101.93C105.15 21.9819 106.62 20.4019 106.62 18.5519C106.62 13.9919 98.8803 16.0719 98.8803 12.6019Z" fill="black"/>
<path d="M31.7287 13.53C31.7287 10.85 29.7987 9.25 26.6287 9.25H21.9688V21.72H22.2687C22.534 21.72 22.7883 21.6146 22.9759 21.4271C23.1634 21.2396 23.2687 20.9852 23.2687 20.72V10.39H26.5887C29.0787 10.39 30.3987 11.53 30.3987 13.53C30.3987 15.53 29.0987 16.6 26.6087 16.6C26.3223 16.6078 26.05 16.726 25.8487 16.93C25.6829 17.1711 25.5956 17.4574 25.5987 17.75H26.5987C29.8087 17.78 31.7287 16.18 31.7287 13.53Z" fill="black"/>
<path d="M72.252 9.25H67.582V21.72H67.882C68.1473 21.72 68.4016 21.6146 68.5891 21.4271C68.7767 21.2396 68.882 20.9852 68.882 20.72V10.39H72.192C74.692 10.39 76.012 11.53 76.012 13.53C76.012 15.53 74.732 16.6 72.212 16.6C71.9284 16.6072 71.659 16.7258 71.462 16.93C71.2962 17.1711 71.2089 17.4574 71.212 17.75H72.212C75.382 17.75 77.302 16.15 77.302 13.5C77.302 10.85 75.422 9.25 72.252 9.25Z" fill="black"/>
<path d="M57.4992 13.2031V10.2031C57.4992 9.93791 57.3939 9.68355 57.2063 9.49602C57.0188 9.30848 56.7644 9.20312 56.4992 9.20312H56.1992V21.7231H56.4992C56.7644 21.7231 57.0188 21.6178 57.2063 21.4302C57.3939 21.2427 57.4992 20.9883 57.4992 20.7231V13.9431V13.2031Z" fill="black"/>
<path d="M17 0H0V18.33H4.63L8.48 21.94L8.54 22L8.6 21.94L12.73 18.33H17.14V0H17ZM12.28 17.37L8.59 20.66L5.08 17.37H1.08V0.99H16.18V17.34H12.38L12.28 17.37Z" fill="black"/>
<path d="M8.88047 4.27344H4.98047V14.7034H5.22047C5.33293 14.7048 5.44454 14.6838 5.54882 14.6416C5.65311 14.5995 5.74799 14.5371 5.82798 14.458C5.90798 14.379 5.97148 14.2848 6.01482 14.181C6.05816 14.0773 6.08048 13.9659 6.08047 13.8534V5.22344H8.85047C10.9405 5.22344 12.0405 6.22344 12.0405 7.85344C12.0405 9.48344 10.9405 10.4434 8.85047 10.4434C8.73221 10.4464 8.6157 10.4727 8.5076 10.5207C8.39949 10.5688 8.30192 10.6377 8.22047 10.7234C8.08137 10.9265 8.00806 11.1673 8.01047 11.4134H8.88047C11.5405 11.4134 13.1505 10.0734 13.1505 7.85344C13.1505 5.63344 11.5405 4.27344 8.88047 4.27344Z" fill="black"/>
</svg>
