<svg width="301" height="123" viewBox="0 0 301 123" fill="none" xmlns="http://www.w3.org/2000/svg">
<path d="M176.38 1.34769C175.514 1.34443 174.666 1.5908 173.937 2.05727C173.208 2.52373 172.629 3.19051 172.27 3.97769L148.18 56.5777H151.18C152.111 56.5783 153.023 56.3083 153.804 55.8006C154.585 55.2929 155.202 54.5693 155.58 53.7177L175.78 8.40769C175.832 8.2928 175.917 8.19544 176.023 8.12718C176.13 8.05893 176.253 8.02264 176.38 8.02264C176.506 8.02264 176.63 8.05893 176.736 8.12718C176.843 8.19544 176.927 8.2928 176.98 8.40769L197.18 53.7177C197.556 54.5685 198.171 55.2918 198.95 55.7995C199.729 56.3072 200.64 56.5776 201.57 56.5777H204.62L180.47 3.97769C180.111 3.19361 179.536 2.52892 178.811 2.06268C178.085 1.59644 177.242 1.34827 176.38 1.34769V1.34769Z" fill="white"/>
<path d="M252.27 20.6577C252.27 8.79766 243.73 1.34766 229.65 1.34766H209.98V56.4577H211.27C212.461 56.4577 213.603 55.9846 214.445 55.1426C215.287 54.3005 215.76 53.1585 215.76 51.9677V7.57766H229.46C240.53 7.57766 246.39 12.7777 246.39 21.6377C246.39 29.8477 241.17 34.9577 231.26 35.4977C235.61 41.8377 241.32 49.9977 244.17 54.0577C244.715 54.8357 245.44 55.471 246.282 55.9097C247.125 56.3484 248.061 56.5775 249.01 56.5777H253.11L239.62 38.3977C247.68 35.7777 252.27 29.3677 252.27 20.6577Z" fill="white"/>
<path d="M276.01 25.2877L298.96 1.34766H294.73C293.941 1.34692 293.16 1.50502 292.433 1.81254C291.707 2.12007 291.049 2.57072 290.5 3.13766L268.27 25.9577C267.933 26.3263 267.746 26.808 267.746 27.3077C267.746 27.8074 267.933 28.289 268.27 28.6577L291.95 54.6577C292.5 55.2578 293.167 55.738 293.91 56.0684C294.653 56.3988 295.457 56.5722 296.27 56.5777H300.62L275.94 27.4777C275.68 27.1682 275.543 26.7735 275.556 26.3693C275.569 25.965 275.731 25.5798 276.01 25.2877V25.2877Z" fill="white"/>
<path d="M155.971 20.3581C155.971 8.57812 147.491 1.57812 133.521 1.57812H112.961V56.5081H114.271C114.861 56.5081 115.444 56.392 115.989 56.1663C116.534 55.9407 117.029 55.61 117.446 55.193C117.863 54.7761 118.194 54.2811 118.419 53.7364C118.645 53.1916 118.761 52.6078 118.761 52.0181V6.57812H133.361C144.361 6.57812 150.161 11.5781 150.161 20.3881C150.161 29.0181 144.351 34.0481 133.361 34.0481C132.106 34.0908 130.916 34.6176 130.041 35.5181C128.931 36.6781 128.931 39.1481 128.931 39.1481H133.521C147.491 39.1181 155.971 32.0581 155.971 20.3581Z" fill="white"/>
<path d="M183.001 65.9688C182.139 65.9718 181.297 66.2209 180.572 66.6869C179.847 67.1529 179.271 67.8162 178.911 68.5987L154.801 121.209H157.801C158.73 121.208 159.638 120.939 160.417 120.433C161.196 119.927 161.812 119.207 162.191 118.359L182.401 73.0488C182.452 72.9333 182.535 72.8351 182.641 72.7661C182.746 72.6971 182.87 72.6604 182.996 72.6604C183.122 72.6604 183.245 72.6971 183.351 72.7661C183.457 72.8351 183.54 72.9333 183.591 73.0488L203.801 118.359C204.179 119.207 204.795 119.927 205.574 120.433C206.353 120.939 207.262 121.208 208.191 121.209H211.241L187.101 68.5788C186.737 67.7984 186.158 67.1382 185.431 66.6758C184.705 66.2134 183.862 65.9681 183.001 65.9688V65.9688Z" fill="white"/>
<path d="M214.839 80.9995C214.839 75.4695 219.339 70.9995 229.469 70.9995C233.481 71.0239 237.443 71.9034 241.089 73.5795C241.565 73.8005 242.081 73.9241 242.606 73.9429C243.13 73.9617 243.654 73.8754 244.145 73.6891C244.636 73.5027 245.084 73.2201 245.465 72.8578C245.845 72.4956 246.149 72.061 246.359 71.5795L246.639 70.9295C242.209 67.8395 235.719 66.0195 229.469 66.0195C215.389 66.0195 209.059 73.0195 209.059 81.2095C209.059 101.7 243.159 92.3695 243.159 107.56C243.159 112.06 240.079 115.81 233.159 116.98C231.986 117.158 230.897 117.692 230.039 118.51L226.269 122.24C226.929 122.24 227.599 122.3 228.269 122.3C242.439 122.3 248.919 115.3 248.919 107.19C248.929 87.0195 214.839 96.1895 214.839 80.9995Z" fill="white"/>
<path d="M261.438 80.9995C261.438 75.4695 265.948 70.9995 276.078 70.9995C280.091 71.0239 284.052 71.9034 287.698 73.5795C288.174 73.8005 288.69 73.9241 289.215 73.9429C289.74 73.9617 290.263 73.8754 290.754 73.6891C291.245 73.5027 291.694 73.2201 292.074 72.8578C292.454 72.4956 292.758 72.061 292.968 71.5795L293.248 70.9295C288.818 67.8395 282.328 66.0195 276.078 66.0195C261.998 66.0195 255.668 73.0195 255.668 81.2095C255.668 101.7 289.768 92.3695 289.768 107.56C289.768 111.95 286.838 115.63 280.278 116.89C278.775 117.143 277.383 117.84 276.278 118.89L272.878 122.3C273.538 122.3 274.208 122.36 274.878 122.36C289.038 122.36 295.528 115.36 295.528 107.25C295.538 87.0195 261.438 96.1895 261.438 80.9995Z" fill="white"/>
<path d="M132.27 66.1484H111.66V121.088H112.97C114.162 121.086 115.304 120.611 116.146 119.767C116.987 118.923 117.46 117.78 117.46 116.588V71.1684H132.06C143.06 71.1684 148.86 76.1684 148.86 84.9784C148.86 93.6184 143.05 98.6384 132.06 98.6384C130.807 98.6872 129.619 99.2131 128.74 100.108C127.63 101.268 127.63 103.738 127.63 103.738H132.27C146.27 103.738 154.72 96.6784 154.72 84.9784C154.72 73.2784 146.19 66.1484 132.27 66.1484Z" fill="white"/>
<path d="M264.349 18.9077V5.83765C264.349 4.64683 263.876 3.50478 263.034 2.66275C262.192 1.82071 261.05 1.34766 259.859 1.34766H258.539V56.4577H259.859C261.05 56.4577 262.192 55.9846 263.034 55.1426C263.876 54.3005 264.349 53.1585 264.349 51.9677V22.1977V18.9077Z" fill="white"/>
<path d="M47.2006 22.5078H26.1406V78.7678H27.4806C28.0864 78.7691 28.6864 78.6508 29.2464 78.4196C29.8063 78.1884 30.315 77.8489 30.7433 77.4205C31.1717 76.9922 31.5112 76.4835 31.7424 75.9235C31.9736 75.3636 32.0919 74.7636 32.0906 74.1578V27.6478H47.0306C58.2906 27.6478 64.2306 32.7978 64.2306 41.7978C64.2306 50.6378 58.2906 55.7978 47.0306 55.7978C45.7481 55.8485 44.5327 56.3847 43.6306 57.2978C42.4906 58.4978 42.4906 61.0178 42.4906 61.0178H47.2006C61.5006 61.0178 70.2006 53.7878 70.2006 41.8178C70.2006 29.8478 61.5006 22.5078 47.2006 22.5078Z" fill="white"/>
<path d="M45.52 118.22L22.93 97.88H0V0H91V97.88H68.12L45.52 118.22ZM4.52 93.38H24.66L45.52 112.16L66.39 93.38H86.54V4.5H4.54L4.52 93.38Z" fill="white"/>
</svg>
