<svg width="302" height="123" viewBox="0 0 302 123" fill="none" xmlns="http://www.w3.org/2000/svg">
<path d="M177.11 1.76956C176.245 1.76631 175.397 2.01268 174.668 2.47914C173.939 2.94561 173.36 3.61239 173 4.39956L148.91 56.9996H151.91C152.842 57.0001 153.753 56.7302 154.535 56.2225C155.316 55.7148 155.932 54.9912 156.31 54.1396L176.51 8.82956C176.563 8.71467 176.647 8.61731 176.754 8.54906C176.86 8.4808 176.984 8.44452 177.11 8.44452C177.237 8.44452 177.36 8.4808 177.467 8.54906C177.573 8.61731 177.658 8.71467 177.71 8.82956L197.91 54.1396C198.286 54.9904 198.901 55.7136 199.681 56.2214C200.46 56.7291 201.37 56.9995 202.3 56.9996H205.35L181.2 4.39956C180.842 3.61549 180.266 2.9508 179.541 2.48456C178.816 2.01832 177.972 1.77015 177.11 1.76956V1.76956Z" fill="black"/>
<path d="M253.001 21.0795C253.001 9.21953 244.461 1.76953 230.381 1.76953H210.711V56.8795H212.001C213.192 56.8795 214.334 56.4065 215.176 55.5644C216.018 54.7224 216.491 53.5804 216.491 52.3895V7.99953H230.191C241.261 7.99953 247.121 13.1995 247.121 22.0595C247.121 30.2695 241.901 35.3795 231.991 35.9195C236.341 42.2595 242.051 50.4195 244.901 54.4795C245.446 55.2576 246.17 55.8929 247.013 56.3316C247.855 56.7702 248.791 56.9994 249.741 56.9995H253.841L240.351 38.8195C248.411 36.1995 253.001 29.7895 253.001 21.0795Z" fill="black"/>
<path d="M276.741 25.7095L299.691 1.76953H295.461C294.672 1.76879 293.891 1.9269 293.164 2.23442C292.437 2.54194 291.78 2.9926 291.231 3.55953L269.001 26.3795C268.664 26.7482 268.477 27.2298 268.477 27.7295C268.477 28.2292 268.664 28.7108 269.001 29.0795L292.681 55.0795C293.23 55.6796 293.897 56.1599 294.641 56.4903C295.384 56.8207 296.187 56.994 297.001 56.9995H301.351L276.671 27.8995C276.411 27.5901 276.274 27.1954 276.287 26.7911C276.299 26.3869 276.461 26.0017 276.741 25.7095V25.7095Z" fill="black"/>
<path d="M156.701 20.78C156.701 9 148.221 2 134.251 2H113.691V56.93H115.001C115.591 56.93 116.175 56.8139 116.72 56.5882C117.264 56.3626 117.759 56.0318 118.176 55.6149C118.593 55.198 118.924 54.703 119.15 54.1582C119.375 53.6135 119.491 53.0296 119.491 52.44V7H134.091C145.091 7 150.891 12 150.891 20.81C150.891 29.44 145.081 34.47 134.091 34.47C132.836 34.5127 131.647 35.0395 130.771 35.94C129.661 37.1 129.661 39.57 129.661 39.57H134.251C148.221 39.54 156.701 32.48 156.701 20.78Z" fill="black"/>
<path d="M183.731 66.3906C182.87 66.3937 182.027 66.6428 181.302 67.1088C180.578 67.5747 180.001 68.2381 179.641 69.0206L155.531 121.631H158.531C159.46 121.63 160.369 121.361 161.148 120.855C161.927 120.349 162.543 119.629 162.921 118.781L183.131 73.4706C183.182 73.3551 183.265 73.2569 183.371 73.188C183.477 73.119 183.6 73.0823 183.726 73.0823C183.852 73.0823 183.976 73.119 184.081 73.188C184.187 73.2569 184.27 73.3551 184.321 73.4706L204.531 118.781C204.91 119.629 205.526 120.349 206.305 120.855C207.084 121.361 207.992 121.63 208.921 121.631H211.971L187.831 69.0006C187.467 68.2203 186.888 67.56 186.162 67.0977C185.436 66.6353 184.592 66.39 183.731 66.3906V66.3906Z" fill="black"/>
<path d="M215.569 81.4214C215.569 75.8914 220.069 71.4214 230.199 71.4214C234.212 71.4458 238.173 72.3253 241.819 74.0014C242.295 74.2224 242.811 74.346 243.336 74.3648C243.861 74.3836 244.384 74.2973 244.875 74.1109C245.366 73.9246 245.815 73.642 246.195 73.2797C246.575 72.9175 246.879 72.4828 247.089 72.0014L247.369 71.3514C242.939 68.2614 236.449 66.4414 230.199 66.4414C216.119 66.4414 209.789 73.4414 209.789 81.6314C209.789 102.121 243.889 92.7914 243.889 107.981C243.889 112.481 240.809 116.231 233.889 117.401C232.717 117.58 231.628 118.114 230.769 118.931L226.999 122.661C227.659 122.661 228.329 122.721 228.999 122.721C243.169 122.721 249.649 115.721 249.649 107.611C249.659 87.4414 215.569 96.6114 215.569 81.4214Z" fill="black"/>
<path d="M262.168 81.4214C262.168 75.8914 266.678 71.4214 276.808 71.4214C280.821 71.4458 284.782 72.3253 288.428 74.0014C288.905 74.2224 289.421 74.346 289.945 74.3648C290.47 74.3836 290.994 74.2973 291.485 74.1109C291.976 73.9246 292.424 73.642 292.805 73.2797C293.185 72.9175 293.489 72.4828 293.698 72.0014L293.978 71.3514C289.548 68.2614 283.058 66.4414 276.808 66.4414C262.728 66.4414 256.398 73.4414 256.398 81.6314C256.398 102.121 290.498 92.7914 290.498 107.981C290.498 112.371 287.568 116.051 281.008 117.311C279.506 117.565 278.113 118.262 277.008 119.311L273.608 122.721C274.268 122.721 274.938 122.781 275.608 122.781C289.768 122.781 296.258 115.781 296.258 107.671C296.268 87.4414 262.168 96.6114 262.168 81.4214Z" fill="black"/>
<path d="M133.001 66.5703H112.391V121.51H113.701C114.892 121.508 116.034 121.032 116.876 120.189C117.718 119.345 118.191 118.202 118.191 117.01V71.5903H132.791C143.791 71.5903 149.591 76.5903 149.591 85.4003C149.591 94.0403 143.781 99.0603 132.791 99.0603C131.537 99.1091 130.349 99.6349 129.471 100.53C128.361 101.69 128.361 104.16 128.361 104.16H133.001C147.001 104.16 155.451 97.1003 155.451 85.4003C155.451 73.7003 146.921 66.5703 133.001 66.5703Z" fill="black"/>
<path d="M265.08 19.3295V6.25953C265.08 5.06871 264.607 3.92666 263.764 3.08462C262.922 2.24258 261.78 1.76953 260.59 1.76953H259.27V56.8795H260.59C261.78 56.8795 262.922 56.4065 263.764 55.5644C264.607 54.7224 265.08 53.5804 265.08 52.3895V22.6195V19.3295Z" fill="black"/>
<path d="M47.9311 22.9297H26.8711V79.1897H28.2111C28.8169 79.191 29.4169 79.0727 29.9768 78.8415C30.5367 78.6102 31.0455 78.2707 31.4738 77.8424C31.9021 77.414 32.2417 76.9053 32.4729 76.3454C32.7041 75.7855 32.8224 75.1855 32.8211 74.5797V28.0697H47.7611C59.0211 28.0697 64.9611 33.2197 64.9611 42.2197C64.9611 51.0597 59.0211 56.2197 47.7611 56.2197C46.4785 56.2704 45.2632 56.8065 44.3611 57.7197C43.2211 58.9197 43.2211 61.4397 43.2211 61.4397H47.9311C62.2311 61.4397 70.9311 54.2097 70.9311 42.2397C70.9311 30.2697 62.2311 22.9297 47.9311 22.9297Z" fill="black"/>
<path d="M46.2505 118.642L23.6605 98.3019H0.730469V0.421875H91.7305V98.3019H68.8505L46.2505 118.642ZM5.25047 93.8019H25.3905L46.2505 112.582L67.1205 93.8019H87.2705V4.92188H5.27047L5.25047 93.8019Z" fill="black"/>
</svg>
