<svg width="107" height="23" viewBox="0 0 107 23" fill="none" xmlns="http://www.w3.org/2000/svg">
<path d="M83.0797 9.60947C82.8828 9.60682 82.6896 9.66234 82.5241 9.76908C82.3587 9.87581 82.2284 10.029 82.1497 10.2095L76.6797 22.1495H77.3497C77.5618 22.1513 77.7697 22.0906 77.9475 21.975C78.1254 21.8594 78.2652 21.694 78.3497 21.4995L82.9397 11.2195C82.952 11.1941 82.9711 11.1727 82.995 11.1578C83.0189 11.1428 83.0465 11.1348 83.0747 11.1348C83.1029 11.1348 83.1305 11.1428 83.1544 11.1578C83.1782 11.1727 83.1974 11.1941 83.2097 11.2195L87.7897 21.4995C87.8752 21.6933 88.0153 21.8579 88.1929 21.9734C88.3705 22.0888 88.5779 22.15 88.7897 22.1495H89.4797L83.9997 10.2095C83.9216 10.0306 83.7929 9.87846 83.6294 9.77185C83.466 9.66523 83.2749 9.60879 83.0797 9.60947Z" fill="white"/>
<path d="M36.9989 9.60884C36.802 9.60619 36.6088 9.66172 36.4433 9.76845C36.2779 9.87519 36.1476 10.0284 36.0689 10.2088L30.6289 22.1488H31.2989C31.5107 22.1494 31.7181 22.0882 31.8957 21.9727C32.0733 21.8573 32.2134 21.6926 32.2989 21.4988L36.8789 11.2188C36.8898 11.1905 36.909 11.1662 36.934 11.149C36.959 11.1319 36.9886 11.1227 37.0189 11.1227C37.0492 11.1227 37.0788 11.1319 37.1038 11.149C37.1288 11.1662 37.148 11.1905 37.1589 11.2188L41.7389 21.4988C41.8244 21.6926 41.9645 21.8573 42.1421 21.9727C42.3197 22.0882 42.5271 22.1494 42.7389 22.1488H43.4289L37.9989 10.2088C37.9159 10.0168 37.7748 9.85561 37.5954 9.74798C37.416 9.64034 37.2074 9.59168 36.9989 9.60884Z" fill="white"/>
<path d="M54.64 13.9994C54.64 11.2994 52.7 9.60938 49.51 9.60938H45V22.1194H45.3C45.5652 22.1194 45.8196 22.014 46.0071 21.8265C46.1946 21.6389 46.3 21.3846 46.3 21.1194V10.9994H49.41C51.92 10.9994 53.25 12.1794 53.25 14.1894C53.25 16.1994 52.07 17.1894 49.82 17.3394C50.82 18.7694 52.1 20.6294 52.75 21.5494C52.8733 21.7265 53.0379 21.871 53.2296 21.9703C53.4212 22.0696 53.6342 22.1208 53.85 22.1194H54.78L51.77 17.9994C52.6259 17.7481 53.3732 17.218 53.8933 16.4932C54.4133 15.7684 54.6761 14.8907 54.64 13.9994Z" fill="white"/>
<path d="M60.6096 15.0498L65.8196 9.60983H64.8196C64.6336 9.60499 64.4486 9.63895 64.2764 9.70954C64.1043 9.78013 63.9487 9.8858 63.8196 10.0198L58.8496 15.1998C58.773 15.2829 58.7305 15.3918 58.7305 15.5048C58.7305 15.6178 58.773 15.7267 58.8496 15.8098L64.2296 21.7098C64.3556 21.8498 64.5099 21.9614 64.6823 22.0372C64.8547 22.1131 65.0413 22.1515 65.2296 22.1498H66.2296L60.6296 15.5398C60.565 15.4758 60.527 15.3897 60.5233 15.2988C60.5195 15.2079 60.5504 15.1189 60.6096 15.0498Z" fill="white"/>
<path d="M89.5387 13.0004C89.5387 11.7504 90.5387 10.7204 92.8587 10.7204C93.7682 10.73 94.6651 10.9346 95.4887 11.3204C95.598 11.3713 95.7164 11.3995 95.8368 11.4033C95.9573 11.4071 96.0772 11.3864 96.1894 11.3425C96.3016 11.2985 96.4038 11.2323 96.4896 11.1477C96.5754 11.0631 96.6432 10.962 96.6888 10.8504L96.7487 10.7004C95.5881 9.95889 94.2359 9.57305 92.8587 9.5904C89.6587 9.5904 88.2188 11.1904 88.2188 13.0404C88.2188 17.6904 95.9587 15.5704 95.9587 19.0404C95.9587 20.0404 95.2687 20.9104 93.6987 21.1804C93.4306 21.2178 93.1817 21.3405 92.9887 21.5304L92.1387 22.3804H92.5887C95.7987 22.3804 97.2787 20.8004 97.2787 18.9504C97.2787 14.3904 89.5387 16.4704 89.5387 13.0004Z" fill="white"/>
<path d="M99.1498 13.0003C99.1498 11.7503 100.15 10.7203 102.47 10.7203C103.383 10.7298 104.283 10.9343 105.11 11.3203C105.219 11.3698 105.338 11.3969 105.458 11.4C105.578 11.4031 105.697 11.3821 105.809 11.3383C105.921 11.2945 106.023 11.2287 106.109 11.1449C106.195 11.0611 106.263 10.961 106.31 10.8503L106.37 10.7003C105.205 9.96013 103.85 9.57449 102.47 9.59031C99.2798 9.59031 97.8398 11.1903 97.8398 13.0403C97.8398 17.6903 105.58 15.5703 105.58 19.0403C105.58 20.0403 104.92 20.8703 103.43 21.1603C103.089 21.2165 102.772 21.3732 102.52 21.6103L101.75 22.3803H102.2C105.42 22.3803 106.89 20.8003 106.89 18.9503C106.89 14.3903 99.1498 16.4703 99.1498 13.0003Z" fill="white"/>
<path d="M31.9983 13.9284C31.9983 11.2484 30.0683 9.64844 26.8983 9.64844H22.2383V22.1184H22.5383C22.8035 22.1184 23.0579 22.0131 23.2454 21.8255C23.4329 21.638 23.5383 21.3837 23.5383 21.1184V10.7884H26.8583C29.3483 10.7884 30.6683 11.9284 30.6683 13.9284C30.6683 15.9284 29.3683 16.9984 26.8783 16.9984C26.5918 17.0062 26.3195 17.1245 26.1183 17.3284C25.9525 17.5695 25.8651 17.8559 25.8683 18.1484H26.8683C30.0783 18.1784 31.9983 16.5784 31.9983 13.9284Z" fill="white"/>
<path d="M72.5216 9.64844H67.8516V22.1184H68.1516C68.4168 22.1184 68.6711 22.0131 68.8587 21.8255C69.0462 21.638 69.1516 21.3837 69.1516 21.1184V10.7884H72.4616C74.9616 10.7884 76.2816 11.9284 76.2816 13.9284C76.2816 15.9284 75.0016 16.9984 72.4816 16.9984C72.1979 17.0056 71.9285 17.1242 71.7316 17.3284C71.5657 17.5695 71.4784 17.8559 71.4816 18.1484H72.4816C75.6516 18.1484 77.5716 16.5484 77.5716 13.8984C77.5716 11.2484 75.6916 9.64844 72.5216 9.64844Z" fill="white"/>
<path d="M57.7687 13.6016V10.6016C57.7687 10.3363 57.6634 10.082 57.4759 9.89445C57.2883 9.70692 57.034 9.60156 56.7687 9.60156H56.4688V22.1216H56.7687C57.034 22.1216 57.2883 22.0162 57.4759 21.8287C57.6634 21.6411 57.7687 21.3868 57.7687 21.1216V14.3416V13.6016Z" fill="white"/>
<path d="M17.2695 0.398438H0.269531V18.7284H4.89953L8.74953 22.3384L8.80953 22.3984L8.86953 22.3384L12.9995 18.7284H17.4095V0.398438H17.2695ZM12.5495 17.7684L8.85953 21.0584L5.34953 17.7684H1.34953V1.38844H16.4495V17.7384H12.6495L12.5495 17.7684Z" fill="white"/>
<path d="M9.15 4.67188H5.25V15.1019H5.49C5.60246 15.1032 5.71407 15.0822 5.81835 15.0401C5.92264 14.9979 6.01752 14.9355 6.09752 14.8565C6.17751 14.7774 6.24101 14.6833 6.28436 14.5795C6.3277 14.4757 6.35001 14.3643 6.35 14.2519V5.62188H9.12C11.21 5.62188 12.31 6.62187 12.31 8.25187C12.31 9.88188 11.21 10.8419 9.12 10.8419C9.00174 10.8449 8.88523 10.8711 8.77713 10.9192C8.66902 10.9672 8.57146 11.0361 8.49 11.1219C8.3509 11.3249 8.27759 11.5658 8.28 11.8119H9.15C11.81 11.8119 13.42 10.4719 13.42 8.25187C13.42 6.03187 11.81 4.67188 9.15 4.67188Z" fill="white"/>
</svg>
