<svg width="19" height="19" viewBox="0 0 19 19" fill="none" xmlns="http://www.w3.org/2000/svg">
<path d="M3.49219 4.66081C3.49219 4.50627 3.55358 4.35806 3.66285 4.24879C3.77213 4.13951 3.92033 4.07812 4.07487 4.07812H11.0671C11.2216 4.07812 11.3698 4.13951 11.4791 4.24879C11.5883 4.35806 11.6497 4.50627 11.6497 4.66081C11.6497 4.81534 11.5883 4.96355 11.4791 5.07282C11.3698 5.1821 11.2216 5.24349 11.0671 5.24349H4.07487C3.92033 5.24349 3.77213 5.1821 3.66285 5.07282C3.55358 4.96355 3.49219 4.81534 3.49219 4.66081ZM3.49219 6.99153C3.49219 6.837 3.55358 6.68879 3.66285 6.57952C3.77213 6.47024 3.92033 6.40885 4.07487 6.40885H11.0671C11.2216 6.40885 11.3698 6.47024 11.4791 6.57952C11.5883 6.68879 11.6497 6.837 11.6497 6.99153C11.6497 7.14607 11.5883 7.29428 11.4791 7.40355C11.3698 7.51283 11.2216 7.57422 11.0671 7.57422H4.07487C3.92033 7.57422 3.77213 7.51283 3.66285 7.40355C3.55358 7.29428 3.49219 7.14607 3.49219 6.99153ZM3.49219 9.32226C3.49219 9.16772 3.55358 9.01952 3.66285 8.91024C3.77213 8.80097 3.92033 8.73958 4.07487 8.73958H11.0671C11.2216 8.73958 11.3698 8.80097 11.4791 8.91024C11.5883 9.01952 11.6497 9.16772 11.6497 9.32226C11.6497 9.4768 11.5883 9.62501 11.4791 9.73428C11.3698 9.84355 11.2216 9.90494 11.0671 9.90494H4.07487C3.92033 9.90494 3.77213 9.84355 3.66285 9.73428C3.55358 9.62501 3.49219 9.4768 3.49219 9.32226ZM3.49219 11.653C3.49219 11.4985 3.55358 11.3502 3.66285 11.241C3.77213 11.1317 3.92033 11.0703 4.07487 11.0703H11.0671C11.2216 11.0703 11.3698 11.1317 11.4791 11.241C11.5883 11.3502 11.6497 11.4985 11.6497 11.653C11.6497 11.8075 11.5883 11.9557 11.4791 12.065C11.3698 12.1743 11.2216 12.2357 11.0671 12.2357H4.07487C3.92033 12.2357 3.77213 12.1743 3.66285 12.065C3.55358 11.9557 3.49219 11.8075 3.49219 11.653ZM3.49219 13.9837C3.49219 13.8292 3.55358 13.681 3.66285 13.5717C3.77213 13.4624 3.92033 13.401 4.07487 13.401H11.0671C11.2216 13.401 11.3698 13.4624 11.4791 13.5717C11.5883 13.681 11.6497 13.8292 11.6497 13.9837C11.6497 14.1383 11.5883 14.2865 11.4791 14.3957C11.3698 14.505 11.2216 14.5664 11.0671 14.5664H4.07487C3.92033 14.5664 3.77213 14.505 3.66285 14.3957C3.55358 14.2865 3.49219 14.1383 3.49219 13.9837ZM13.3978 4.07812C13.2432 4.07812 13.095 4.13951 12.9858 4.24879C12.8765 4.35806 12.8151 4.50627 12.8151 4.66081C12.8151 4.81534 12.8765 4.96355 12.9858 5.07282C13.095 5.1821 13.2432 5.24349 13.3978 5.24349H14.5631C14.7177 5.24349 14.8659 5.1821 14.9752 5.07282C15.0844 4.96355 15.1458 4.81534 15.1458 4.66081C15.1458 4.50627 15.0844 4.35806 14.9752 4.24879C14.8659 4.13951 14.7177 4.07812 14.5631 4.07812H13.3978ZM13.3978 6.40885C13.2432 6.40885 13.095 6.47024 12.9858 6.57952C12.8765 6.68879 12.8151 6.837 12.8151 6.99153C12.8151 7.14607 12.8765 7.29428 12.9858 7.40355C13.095 7.51283 13.2432 7.57422 13.3978 7.57422H14.5631C14.7177 7.57422 14.8659 7.51283 14.9752 7.40355C15.0844 7.29428 15.1458 7.14607 15.1458 6.99153C15.1458 6.837 15.0844 6.68879 14.9752 6.57952C14.8659 6.47024 14.7177 6.40885 14.5631 6.40885H13.3978ZM13.3978 8.73958C13.2432 8.73958 13.095 8.80097 12.9858 8.91024C12.8765 9.01952 12.8151 9.16772 12.8151 9.32226C12.8151 9.4768 12.8765 9.62501 12.9858 9.73428C13.095 9.84355 13.2432 9.90494 13.3978 9.90494H14.5631C14.7177 9.90494 14.8659 9.84355 14.9752 9.73428C15.0844 9.62501 15.1458 9.4768 15.1458 9.32226C15.1458 9.16772 15.0844 9.01952 14.9752 8.91024C14.8659 8.80097 14.7177 8.73958 14.5631 8.73958H13.3978ZM13.3978 11.0703C13.2432 11.0703 13.095 11.1317 12.9858 11.241C12.8765 11.3502 12.8151 11.4985 12.8151 11.653C12.8151 11.8075 12.8765 11.9557 12.9858 12.065C13.095 12.1743 13.2432 12.2357 13.3978 12.2357H14.5631C14.7177 12.2357 14.8659 12.1743 14.9752 12.065C15.0844 11.9557 15.1458 11.8075 15.1458 11.653C15.1458 11.4985 15.0844 11.3502 14.9752 11.241C14.8659 11.1317 14.7177 11.0703 14.5631 11.0703H13.3978ZM13.3978 13.401C13.2432 13.401 13.095 13.4624 12.9858 13.5717C12.8765 13.681 12.8151 13.8292 12.8151 13.9837C12.8151 14.1383 12.8765 14.2865 12.9858 14.3957C13.095 14.505 13.2432 14.5664 13.3978 14.5664H14.5631C14.7177 14.5664 14.8659 14.505 14.9752 14.3957C15.0844 14.2865 15.1458 14.1383 15.1458 13.9837C15.1458 13.8292 15.0844 13.681 14.9752 13.5717C14.8659 13.4624 14.7177 13.401 14.5631 13.401H13.3978Z" fill="white"/>
<path d="M2.74327 0.171185C2.67798 0.105846 2.59809 0.0569642 2.5102 0.0285716C2.4223 0.00017909 2.32892 -0.00691092 2.23774 0.0078864C2.14657 0.0226837 2.06022 0.0589444 1.98581 0.113678C1.91141 0.168411 1.85108 0.240049 1.80981 0.322682L1.22713 1.48805C1.18652 1.56907 1.16537 1.65845 1.16536 1.74909V16.8988H0.582682C0.428145 16.8988 0.279938 16.9602 0.170664 17.0695C0.0613895 17.1787 0 17.327 0 17.4815C0 17.636 0.0613895 17.7842 0.170664 17.8935C0.279938 18.0028 0.428145 18.0642 0.582682 18.0642H18.0631C18.2177 18.0642 18.3659 18.0028 18.4752 17.8935C18.5844 17.7842 18.6458 17.636 18.6458 17.4815C18.6458 17.327 18.5844 17.1787 18.4752 17.0695C18.3659 16.9602 18.2177 16.8988 18.0631 16.8988H17.4805V1.74909C17.4804 1.65845 17.4593 1.56907 17.4187 1.48805L16.836 0.322682C16.7947 0.240259 16.7344 0.168818 16.6601 0.114231C16.5858 0.059644 16.4996 0.0234697 16.4086 0.00868104C16.3176 -0.00610765 16.2244 0.000911466 16.1366 0.0291616C16.0488 0.0574117 15.969 0.106086 15.9037 0.171185L15.1497 0.925175L14.3969 0.171185C14.3428 0.116922 14.2785 0.0738697 14.2077 0.044495C14.1369 0.0151204 14.061 0 13.9844 0C13.9077 0 13.8318 0.0151204 13.761 0.044495C13.6903 0.0738697 13.6259 0.116922 13.5718 0.171185L12.819 0.925175L12.0662 0.171185C12.012 0.116922 11.9477 0.0738697 11.877 0.044495C11.8062 0.0151204 11.7303 0 11.6536 0C11.577 0 11.5011 0.0151204 11.4303 0.044495C11.3595 0.0738697 11.2952 0.116922 11.2411 0.171185L10.4883 0.925175L9.73545 0.171185C9.68132 0.116922 9.61702 0.0738697 9.54623 0.044495C9.47544 0.0151204 9.39955 0 9.32291 0C9.24627 0 9.17038 0.0151204 9.09959 0.044495C9.0288 0.0738697 8.9645 0.116922 8.91037 0.171185L8.15755 0.925175L7.40472 0.171185C7.35059 0.116922 7.28629 0.0738697 7.2155 0.044495C7.14471 0.0151204 7.06882 0 6.99218 0C6.91554 0 6.83965 0.0151204 6.76886 0.044495C6.69807 0.0738697 6.63377 0.116922 6.57964 0.171185L5.82682 0.925175L5.07399 0.171185C5.01987 0.116922 4.95557 0.0738697 4.88478 0.044495C4.81399 0.0151204 4.7381 0 4.66145 0C4.58481 0 4.50892 0.0151204 4.43813 0.044495C4.36734 0.0738697 4.30304 0.116922 4.24892 0.171185L3.49609 0.925175L2.74327 0.171185ZM2.49038 1.56729L3.08472 2.16163C3.19399 2.27086 3.34217 2.33223 3.49667 2.33223C3.65118 2.33223 3.79936 2.27086 3.90863 2.16163L4.66145 1.40764L5.41428 2.16163C5.46841 2.21589 5.5327 2.25894 5.60349 2.28832C5.67428 2.31769 5.75017 2.33281 5.82682 2.33281C5.90346 2.33281 5.97935 2.31769 6.05014 2.28832C6.12093 2.25894 6.18523 2.21589 6.23936 2.16163L6.99218 1.40764L7.74501 2.16163C7.79913 2.21589 7.86343 2.25894 7.93422 2.28832C8.00501 2.31769 8.0809 2.33281 8.15755 2.33281C8.23419 2.33281 8.31008 2.31769 8.38087 2.28832C8.45166 2.25894 8.51596 2.21589 8.57008 2.16163L9.32291 1.40764L10.0757 2.16163C10.1299 2.21589 10.1942 2.25894 10.2649 2.28832C10.3357 2.31769 10.4116 2.33281 10.4883 2.33281C10.5649 2.33281 10.6408 2.31769 10.7116 2.28832C10.7824 2.25894 10.8467 2.21589 10.9008 2.16163L11.6536 1.40764L12.4065 2.16163C12.4606 2.21589 12.5249 2.25894 12.5957 2.28832C12.6665 2.31769 12.7424 2.33281 12.819 2.33281C12.8956 2.33281 12.9715 2.31769 13.0423 2.28832C13.1131 2.25894 13.1774 2.21589 13.2315 2.16163L13.9844 1.40764L14.7372 2.16163C14.7913 2.21589 14.8556 2.25894 14.9264 2.28832C14.9972 2.31769 15.0731 2.33281 15.1497 2.33281C15.2264 2.33281 15.3023 2.31769 15.373 2.28832C15.4438 2.25894 15.5081 2.21589 15.5623 2.16163L16.1554 1.56729L16.3151 1.8866V16.8988H2.33073V1.8866L2.49038 1.56729Z" fill="white"/>
</svg>
