<svg width="20" height="20" viewBox="0 0 20 20" fill="none" xmlns="http://www.w3.org/2000/svg">
<path d="M19.9399 18.1171L13.4474 12.0304C14.4549 10.8093 14.9999 9.31637 14.9999 7.74606C14.9999 5.86638 14.2174 4.10389 12.8024 2.77499C11.3874 1.44609 9.50246 0.714844 7.49997 0.714844C5.49748 0.714844 3.61248 1.44843 2.19749 2.77499C0.779996 4.10155 0 5.86638 0 7.74606C0 9.6234 0.782496 11.3906 2.19749 12.7171C3.61248 14.046 5.49498 14.7773 7.49997 14.7773C9.17496 14.7773 10.765 14.2663 12.0674 13.3242L18.5599 19.4085C18.579 19.4264 18.6016 19.4405 18.6264 19.4502C18.6513 19.4599 18.678 19.4648 18.7049 19.4648C18.7318 19.4648 18.7585 19.4599 18.7834 19.4502C18.8083 19.4405 18.8309 19.4264 18.8499 19.4085L19.9399 18.389C19.959 18.3711 19.9741 18.3499 19.9844 18.3266C19.9947 18.3033 20 18.2783 20 18.253C20 18.2278 19.9947 18.2028 19.9844 18.1795C19.9741 18.1562 19.959 18.135 19.9399 18.1171V18.1171ZM11.46 11.4585C10.4 12.4499 8.99496 12.996 7.49997 12.996C6.00497 12.996 4.59998 12.4499 3.53998 11.4585C2.48249 10.4648 1.89999 9.14762 1.89999 7.74606C1.89999 6.34451 2.48249 5.02498 3.53998 4.03358C4.59998 3.04218 6.00497 2.49609 7.49997 2.49609C8.99496 2.49609 10.4025 3.03983 11.46 4.03358C12.5174 5.02733 13.0999 6.34451 13.0999 7.74606C13.0999 9.14762 12.5174 10.4671 11.46 11.4585Z" fill="#054168"/>
</svg>
