<svg width="98" height="98" viewBox="0 0 98 98" fill="none" xmlns="http://www.w3.org/2000/svg">
<path d="M49.0009 5.44531C40.3864 5.44531 31.9654 7.9998 24.8027 12.7857C17.64 17.5717 12.0574 24.3741 8.7608 32.3329C5.46418 40.2916 4.60164 49.0492 6.28224 57.4981C7.96284 65.9471 12.1111 73.7079 18.2025 79.7993C24.2938 85.8906 32.0547 90.0389 40.5036 91.7195C48.9526 93.4001 57.7101 92.5376 65.6689 89.241C73.6276 85.9443 80.4301 80.3617 85.216 73.199C90.002 66.0364 92.5564 57.6153 92.5564 49.0009C92.5564 37.4492 87.9676 26.3707 79.7993 18.2024C71.6311 10.0342 60.5525 5.44531 49.0009 5.44531ZM49.0009 87.112C41.4632 87.112 34.0948 84.8768 27.8275 80.6891C21.5601 76.5014 16.6754 70.5493 13.7908 63.5854C10.9063 56.6215 10.1515 48.9586 11.6221 41.5658C13.0926 34.1729 16.7223 27.3822 22.0523 22.0522C27.3822 16.7223 34.1729 13.0926 41.5658 11.6221C48.9586 10.1515 56.6215 10.9063 63.5854 13.7908C70.5493 16.6753 76.5014 21.5601 80.6891 27.8275C84.8768 34.0948 87.112 41.4632 87.112 49.0009C87.112 59.1086 83.0967 68.8023 75.9495 75.9495C68.8023 83.0967 59.1086 87.112 49.0009 87.112Z" fill="#054168"/>
<path d="M76.2236 32.9361C75.7136 32.4291 75.0236 32.1445 74.3045 32.1445C73.5853 32.1445 72.8953 32.4291 72.3853 32.9361L42.1686 63.0167L25.8353 46.6834C25.3371 46.1455 24.6457 45.8275 23.9131 45.7995C23.1805 45.7714 22.4668 46.0355 21.9289 46.5336C21.391 47.0318 21.0731 47.7232 21.045 48.4558C21.0169 49.1884 21.281 49.9021 21.7792 50.44L42.1686 70.775L76.2236 36.8017C76.4788 36.5486 76.6813 36.2475 76.8195 35.9158C76.9577 35.5841 77.0289 35.2283 77.0289 34.8689C77.0289 34.5095 76.9577 34.1537 76.8195 33.822C76.6813 33.4903 76.4788 33.1892 76.2236 32.9361Z" fill="#054168"/>
</svg>
