<svg width="1679" height="1609" viewBox="0 0 1679 1609" fill="none" xmlns="http://www.w3.org/2000/svg">
<path d="M1422.67 512.613C1564.24 512.613 1679 397.861 1679 256.307C1679 114.752 1564.24 0 1422.67 0C1281.1 0 1166.34 114.752 1166.34 256.307C1166.34 397.861 1281.1 512.613 1422.67 512.613Z" fill="#DCAB4F"/>
<path d="M1.10118 1306.2C1.70914 1472.54 137.055 1606.88 303.405 1606.28C469.755 1605.67 604.116 1470.33 603.508 1304C602.9 1137.67 467.553 1003.32 301.204 1003.93C134.854 1004.53 0.493213 1139.87 1.10118 1306.2Z" fill="#DCAB4F"/>
<path d="M525.464 1284.1C525.643 1333.12 565.535 1372.72 614.565 1372.54C663.594 1372.36 703.195 1332.47 703.016 1283.45C702.837 1234.42 662.945 1194.83 613.916 1195.01C564.886 1195.18 525.285 1235.07 525.464 1284.1Z" fill="#1ED760"/>
<path d="M525.464 1284.1C525.643 1333.12 565.535 1372.72 614.564 1372.54C663.594 1372.36 703.195 1332.47 703.016 1283.45C702.836 1234.42 662.945 1194.83 613.915 1195.01C564.886 1195.18 525.285 1235.07 525.464 1284.1Z" fill="#DCAB4F"/>
<path d="M1410.15 1299.32C1470.56 1299.32 1519.53 1250.35 1519.53 1189.95C1519.53 1129.54 1470.56 1080.57 1410.15 1080.57C1349.74 1080.57 1300.76 1129.54 1300.76 1189.95C1300.76 1250.35 1349.74 1299.32 1410.15 1299.32Z" fill="#DCAB4F"/>
<path fill-rule="evenodd" clip-rule="evenodd" d="M584.215 1202C549.603 1214.22 524.859 1247.28 525.001 1286.05C525.157 1328.83 555.554 1364.43 595.874 1372.69C600.648 1351.21 603.128 1328.88 603.044 1305.96C602.911 1269.39 596.267 1234.38 584.215 1202Z" fill="#D3564C"/>
</svg>
