<svg viewBox="0 0 730 138"><g><path d="M50.4 21.7h-29c-.9 0-1.7.8-1.7 1.8v91c0 .9.8 1.8 1.7 1.8h2.4c1.3 0 2.2-.8 2.2-1.8V28.1h24c13.3 0 24.5 10.5 24.5 23.8 0 13.6-11.1 24.5-24.2 24.6v6.2h.3c16.6 0 30.3-13.8 30.3-30.6-.1-16.7-13.8-30.4-30.5-30.4z" style="fill: rgb(255, 255, 255);"></path><path d="M50.4 21.7c16.7 0 30.4 13.6 30.4 30.2 0 16.9-13.7 30.6-30.3 30.6h-.3v-6.2c13.1-.1 24.2-11 24.2-24.6 0-13.2-11.2-23.8-24.5-23.8H26v86.5c0 .9-.8 1.8-2.2 1.8h-2.4c-.9 0-1.7-.8-1.7-1.8v-91c0-.9.8-1.8 1.7-1.8l29 .1m0-20h-29C9.4 1.7-.3 11.5-.3 23.5v91c0 12 9.8 21.8 21.7 21.8h2.4c5.4 0 10.6-1.9 14.6-5.4 4.8-4.1 7.5-10.1 7.5-16.4v-11.8h4.5c27.7 0 50.3-22.7 50.3-50.7.1-27.8-22.5-50.3-50.3-50.3zM46 48.1h4c2.4 0 4.5 1.7 4.5 3.7 0 2.6-2.3 4.5-4.4 4.5H46v-8.2z"></path></g><g><path d="M113.1 23.5c0-.9.8-1.8 1.7-1.8h3c.8 0 1.6.8 1.6 1.8v87.1h42.9c1.6 0 1.7.8 1.7 1.8v2.4c0 .9-.8 1.5-1.7 1.5h-47.5c-.9 0-1.7-.8-1.7-1.8v-91z" style="fill: rgb(255, 255, 255);"></path><path d="M117.8 21.7c.8 0 1.6.8 1.6 1.8v87.1h42.9c1.6 0 1.7.8 1.7 1.8v2.4c0 .9-.8 1.5-1.7 1.5h-47.5c-.9 0-1.7-.8-1.7-1.8v-91c0-.9.8-1.8 1.7-1.8h3m0-20h-3c-12 0-21.7 9.8-21.7 21.8v91c0 12 9.8 21.8 21.7 21.8h47.5c12 0 21.7-9.7 21.7-21.5v-2.4c0-12.4-9.3-21.8-21.7-21.8h-23v-67c.1-12.1-9.6-21.9-21.5-21.9z"></path></g><g><path d="M248.1 110.6h-49.3v-40H229v-5.8h-30.2V27.5h49.3c.9 0 1.8-.8 1.8-1.8v-2.3c0-.9-.8-1.8-1.8-1.8h-54c-.9 0-1.7.8-1.7 1.8v91c0 .9.8 1.8 1.7 1.8h54c.9 0 1.8-.8 1.8-1.8v-2.2c0-.8-.8-1.6-1.8-1.6z" style="fill: rgb(255, 255, 255);"></path><path d="M248.1 21.7c.9 0 1.8.8 1.8 1.8v2.3c0 .9-.8 1.8-1.8 1.8h-49.3v37.3H229v5.8h-30.2v40h49.3c.9 0 1.8.8 1.8 1.8v2.2c0 .9-.8 1.8-1.8 1.8h-54c-.9 0-1.7-.8-1.7-1.8v-91c0-.9.8-1.8 1.7-1.8h54m0-20.2h-54c-12 0-21.7 9.8-21.7 21.8v91c0 12 9.8 21.8 21.7 21.8h54c12 0 21.7-9.8 21.7-21.8v-2.2c0-11.7-9.2-21.3-20.8-21.8V47.6c11.6-.5 20.8-10.1 20.8-21.8v-2.3c.1-12-9.7-21.8-21.7-21.8z"></path></g><g><path d="M286.3 23.5c0-.9.8-1.8 1.7-1.8h3c.9 0 1.8.8 1.8 1.8v91c0 1.1-.9 1.8-1.9 1.8h-2.8c-.9 0-1.7-.8-1.7-1.8v-91h-.1z" style="fill: rgb(255, 255, 255);"></path><path d="M291 21.7c.9 0 1.8.8 1.8 1.8v91c0 1.1-.9 1.8-1.9 1.8h-2.8c-.9 0-1.7-.8-1.7-1.8v-91c0-.9.8-1.8 1.7-1.8h2.9m0-20h-3c-12 0-21.7 9.8-21.7 21.8v91c0 12 9.8 21.8 21.7 21.8h2.8c12.1 0 21.9-9.8 21.9-21.8v-91c.1-12-9.7-21.8-21.7-21.8z"></path></g><g><path d="M334.8 22.1c0-1.1.9-1.8 2-1.8h2.3l64.6 84.4h.1V23.5c0-.9.8-1.8 1.7-1.8h2.7c.9 0 1.8.8 1.8 1.8v92.4c0 1.2-1.1 1.8-2.2 1.8H406c-.1 0-1.2-.4-65.2-85.2h-.1v82.1c0 .9-.8 1.8-1.7 1.8h-2.6c-.9 0-1.7-.8-1.7-1.8V22.1h.1z" style="fill: rgb(255, 255, 255);"></path><path d="M339.1 20.4l64.6 84.4h.1V23.5c0-.9.8-1.8 1.7-1.8h2.7c.9 0 1.8.8 1.8 1.8v92.4c0 1.2-1.1 1.8-2.2 1.8H406c-.1 0-1.2-.4-65.2-85.2h-.1v82.1c0 .9-.8 1.8-1.7 1.8h-2.6c-.9 0-1.7-.8-1.7-1.8V22.1c0-1.1.9-1.8 2-1.8l2.4.1M349 .3h-12.2c-12.1 0-22 9.8-22 21.8v92.4c0 12 9.8 21.8 21.7 21.8h2.6c12 0 21.7-9.8 21.7-21.8V91.8c8.8 11.6 27.1 35.3 28.7 37.2 2 2.4 7.1 8.7 16.7 8.7h1.8c12.4 0 22.1-9.6 22.1-21.8V23.5c0-12-9.8-21.8-21.7-21.8h-2.7c-12 0-21.7 9.8-21.7 21.8v22.4L349 .3z"></path></g><g><path d="M481.2 114.6l41.5-94c.3-.5.9-.9 1.6-.9h.4c.7 0 1.3.1 1.7.9l41.1 94c.3.8.3 1.6-1.2 1.6h-3.5c-.9 0-1.6-.7-1.9-1.2l-36.6-84.5-25.8 59.7-10.7 24.8c-.3.5-.9 1.2-1.9 1.2h-3.8c-.9 0-1.3-.5-.9-1.6z" style="fill: rgb(255, 255, 255);"></path><path d="M524.7 19.7c.7 0 1.3.1 1.7.9l41.1 94c.3.8.3 1.6-1.2 1.6h-3.5c-.9 0-1.6-.7-1.9-1.2l-36.6-84.5-36.5 84.5c-.3.5-.9 1.2-1.9 1.2h-3.8c-.9 0-1.3-.5-.9-1.6l41.5-94c.3-.5.9-.9 1.6-.9h.4m0-20.1h-.4c-8.2 0-15.9 4.7-19.5 12.1l-42.3 95.8c-2.5 6.8-1.7 13.9 2.3 19.7 3.9 5.6 10.4 9 17.4 9h3.8c8.3 0 16-4.8 19.8-12.3L517 98.1l7.5-17.3 18.6 43.1c3.7 7.5 11.5 12.3 19.8 12.3h3.5c7.1 0 13.4-3.2 17.4-8.7s5-12.6 2.7-19.3l-42.2-96.6c-3.6-7.3-11.1-12-19.6-12z"></path></g><g><path d="M596.1 23.5c0-.9.8-1.8 1.7-1.8h3c.9 0 1.8.8 1.8 1.8v91c0 1.1-.9 1.8-1.9 1.8h-2.8c-.9 0-1.7-.8-1.7-1.8l-.1-91z" style="fill: rgb(255, 255, 255);"></path><path d="M600.8 21.7c.9 0 1.8.8 1.8 1.8v91c0 1.1-.9 1.8-1.9 1.8h-2.8c-.9 0-1.7-.8-1.7-1.8v-91c0-.9.8-1.8 1.7-1.8h2.9m0-20h-3c-12 0-21.7 9.8-21.7 21.8v91c0 12 9.8 21.8 21.7 21.8h2.8c12.1 0 21.9-9.8 21.9-21.8v-91c0-12-9.7-21.8-21.7-21.8z"></path></g><g><path d="M697 95.7l-9.3-16.9c12.7-3.7 22-14.6 22-28.2 0-16.5-13.6-28.9-30-28.9h-33.4c-1.1 0-1.7.8-1.7 1.8v91c0 .9.8 1.8 1.7 1.8h2.4c1.3 0 2.2-.8 2.2-1.8V79.8h.1V27.9h28.3c13.1 0 24 9.9 24 22.7s-10 22.6-22.1 23.4v.2c-1.7.5-2.6 2.4-1.6 4 3.5 6.2 9.9 17.2 10.5 18.4l10.1 18.4c.4.8.9 1.2 1.9 1.2h4.2c1.3 0 1.6-1.4.9-2.4L697 95.7z" style="fill: rgb(255, 255, 255);"></path><path d="M679.7 21.7c16.4 0 30 12.4 30 28.9 0 13.6-9.3 24.5-22 28.2l9.3 16.9 10.2 18.1c.7 1.1.4 2.4-.9 2.4H702c-.9 0-1.5-.4-1.9-1.2L690 96.7c-.7-1.2-7-12.3-10.5-18.4-.9-1.6 0-3.6 1.6-4V74c12.2-.9 22.1-10.6 22.1-23.4s-10.9-22.7-24-22.7H651v51.9l-.1 34.7c0 .9-.8 1.8-2.2 1.8h-2.4c-.9 0-1.7-.8-1.7-1.8v-91c0-.9.7-1.8 1.7-1.8h33.4m0-20h-33.4c-12 0-21.7 9.8-21.7 21.8v91c0 12 9.8 21.8 21.7 21.8h2.4c5.4 0 10.6-1.9 14.6-5.4 4.8-4.1 7.5-10.1 7.5-16.4v-11c1 1.7 11.7 21.1 11.7 21.1 3.9 7.4 11.2 11.8 19.5 11.8h4.2c7.8 0 14.9-4.2 18.6-10.9 3.7-6.7 3.5-14.9-.4-21.6l-10-17.8c9.6-9.1 15.2-21.6 15.2-35.3 0-13.5-5.4-26-15.1-35.2-9.3-9-21.7-13.9-34.8-13.9zM671 48h8.3c2.1 0 4 1.2 4 2.6 0 2.5-2.3 3.3-3.5 3.4l-8.7.6-.1-6.6z"></path></g></svg>