<svg width="26" height="27" viewBox="0 0 26 27" fill="none" xmlns="http://www.w3.org/2000/svg">
<path d="M22.7487 17.3986V4.3986H3.2487V17.3986H22.7487ZM22.7487 2.23193C23.3233 2.23193 23.8744 2.46021 24.2808 2.86654C24.6871 3.27286 24.9154 3.82396 24.9154 4.3986V17.3986C24.9154 17.9732 24.6871 18.5243 24.2808 18.9307C23.8744 19.337 23.3233 19.5653 22.7487 19.5653H15.1654V21.7319H17.332V23.8986H8.66536V21.7319H10.832V19.5653H3.2487C2.67406 19.5653 2.12296 19.337 1.71663 18.9307C1.3103 18.5243 1.08203 17.9732 1.08203 17.3986V4.3986C1.08203 3.1961 2.0462 2.23193 3.2487 2.23193H22.7487ZM5.41536 6.56527H15.1654V11.9819H5.41536V6.56527ZM16.2487 6.56527H20.582V8.73193H16.2487V6.56527ZM20.582 9.81527V15.2319H16.2487V9.81527H20.582ZM5.41536 13.0653H9.7487V15.2319H5.41536V13.0653ZM10.832 13.0653H15.1654V15.2319H10.832V13.0653Z" fill="#054168"/>
</svg>
