<svg width="19" height="19" viewBox="0 0 19 19" fill="none" xmlns="http://www.w3.org/2000/svg">
<g clip-path="url(#clip0)">
<path d="M2.92299 11.6285L1.97299 15.7285C1.94022 15.8784 1.94134 16.0337 1.97628 16.1831C2.01122 16.3325 2.07908 16.4722 2.17492 16.592C2.27076 16.7118 2.39216 16.8086 2.53023 16.8755C2.66831 16.9424 2.81958 16.9776 2.97299 16.9785C3.04448 16.9857 3.11651 16.9857 3.18799 16.9785L7.31299 16.0285L15.233 8.13852L10.813 3.72852L2.92299 11.6285Z" fill="white"/>
<path d="M17.7219 4.18831L14.7719 1.23831C14.5779 1.04534 14.3155 0.937012 14.0419 0.937012C13.7683 0.937012 13.5058 1.04534 13.3119 1.23831L11.6719 2.87831L16.0869 7.29331L17.7269 5.65331C17.8228 5.55685 17.8989 5.44241 17.9506 5.31654C18.0023 5.19067 18.0286 5.05584 18.0282 4.91977C18.0277 4.7837 18.0004 4.64905 17.9478 4.52354C17.8953 4.39803 17.8185 4.28411 17.7219 4.18831Z" fill="white"/>
</g>
<defs>
<clipPath id="clip0">
<rect width="18" height="18" fill="white" transform="translate(0.8125 0.0283203)"/>
</clipPath>
</defs>
</svg>
