<svg id="Layer_1" data-name="Layer 1" xmlns="http://www.w3.org/2000/svg" viewBox="0 0 413.7 226.92"><path d="M234.11,55.77A4.5,4.5,0,0,0,230,58.4L205.91,111h3a4.81,4.81,0,0,0,4.4-2.86l20.2-45.31a.66.66,0,0,1,1.2,0l20.2,45.31a4.8,4.8,0,0,0,4.39,2.86h3.05L238.2,58.4A4.5,4.5,0,0,0,234.11,55.77Z"/><path d="M310,75.08c0-11.86-8.54-19.31-22.62-19.31H267.71v55.11H269a4.49,4.49,0,0,0,4.49-4.49V62h13.7c11.07,0,16.93,5.2,16.93,14.06,0,8.21-5.22,13.32-15.13,13.86,4.35,6.34,10.06,14.5,12.91,18.56a5.91,5.91,0,0,0,4.84,2.52h4.1L297.35,92.82C305.41,90.2,310,83.79,310,75.08Z"/><path d="M333.74,79.71l22.95-23.94h-4.23a5.88,5.88,0,0,0-4.23,1.79L326,80.38a2,2,0,0,0,0,2.7l23.68,26A5.91,5.91,0,0,0,354,111h4.35L333.67,81.9A1.64,1.64,0,0,1,333.74,79.71Z"/><path d="M213.7,74.78C213.7,63,205.22,56,191.25,56H170.69v54.93H172a4.49,4.49,0,0,0,4.49-4.49V61h14.6c11,0,16.8,5,16.8,13.81,0,8.63-5.81,13.66-16.8,13.66a4.86,4.86,0,0,0-3.32,1.47c-1.11,1.16-1.11,3.63-1.11,3.63h4.59C205.22,93.54,213.7,86.48,213.7,74.78Z"/><path d="M240.73,120.39a4.52,4.52,0,0,0-4.09,2.63l-24.11,52.61h3a4.81,4.81,0,0,0,4.39-2.85l20.21-45.31a.65.65,0,0,1,1.19,0l20.21,45.31a4.81,4.81,0,0,0,4.39,2.85h3.05L244.83,123A4.52,4.52,0,0,0,240.73,120.39Z"/><path d="M272.57,135.42c0-5.53,4.5-10,14.63-10A28.23,28.23,0,0,1,298.82,128a3.94,3.94,0,0,0,5.27-2l.28-.65c-4.43-3.09-10.92-4.91-17.17-4.91-14.08,0-20.41,7-20.41,15.19,0,20.49,34.1,11.16,34.1,26.35,0,4.5-3.08,8.25-10,9.42a5.79,5.79,0,0,0-3.12,1.53L284,176.66c.66,0,1.33.06,2,.06,14.17,0,20.65-7,20.65-15.11C306.66,141.44,272.57,150.61,272.57,135.42Z"/><path d="M319.17,135.42c0-5.53,4.51-10,14.64-10A28.23,28.23,0,0,1,345.43,128a3.94,3.94,0,0,0,5.27-2l.28-.65c-4.43-3.09-10.92-4.91-17.17-4.91-14.08,0-20.41,7-20.41,15.19,0,20.49,34.1,11.16,34.1,26.35,0,4.39-2.93,8.07-9.49,9.33a7.66,7.66,0,0,0-4,2l-3.4,3.41c.66,0,1.33.06,2,.06,14.16,0,20.65-7,20.65-15.11C353.27,141.44,319.17,150.61,319.17,135.42Z"/><path d="M190,120.57H169.39v54.94h1.31a4.5,4.5,0,0,0,4.49-4.5V125.59h14.6c11,0,16.8,5,16.8,13.81,0,8.64-5.81,13.66-16.8,13.66a4.92,4.92,0,0,0-3.32,1.47c-1.11,1.16-1.11,3.63-1.11,3.63H190c14,0,22.45-7.06,22.45-18.76S203.92,120.57,190,120.57Z"/><path d="M322.08,73.33V60.26a4.49,4.49,0,0,0-4.49-4.49h-1.32v55.11h1.32a4.49,4.49,0,0,0,4.49-4.49V76.62h0V73.33Z"/><path d="M104.93,76.93H83.87v56.26h1.34a4.6,4.6,0,0,0,4.61-4.61V82.07h14.94c11.26,0,17.2,5.15,17.2,14.15,0,8.84-5.94,14-17.2,14a5.06,5.06,0,0,0-3.4,1.5c-1.14,1.2-1.14,3.72-1.14,3.72h4.71c14.3,0,23-7.23,23-19.2S119.23,76.93,104.93,76.93Z"/><path d="M103.25,172.64,80.66,152.3H57.73V54.42h91V152.3H125.85Zm-41-24.84H82.39l20.86,18.78,20.87-18.78h20.15V58.92h-82Z"/></svg>