<svg width="26" height="27" viewBox="0 0 26 27" fill="none" xmlns="http://www.w3.org/2000/svg">
<g clip-path="url(#clip0)">
<path d="M26 24.9084C26 25.1113 25.8857 25.2973 25.6572 25.4664C25.4287 25.6356 25.0775 25.7751 24.6035 25.885C24.1296 25.9949 23.6429 26.0964 23.1436 26.1894C22.6442 26.2824 22.0052 26.3543 21.2266 26.405C20.4479 26.4557 19.7708 26.4938 19.1953 26.5191C18.6198 26.5445 17.8792 26.5656 16.9736 26.5825C16.068 26.5995 15.3825 26.6079 14.917 26.6079H11.083L9.02637 26.5825L6.80469 26.5191L4.77344 26.405L2.85645 26.1894L1.39648 25.885L0.342773 25.4664L0 24.9084C0.0338542 23.4203 0.964844 22.1055 2.79297 20.964C4.62109 19.8225 6.9401 19.0658 9.75 18.6938V17.8567C8.86979 17.4677 8.10807 16.9182 7.46484 16.2079C6.82161 15.4977 6.3138 14.6648 5.94141 13.7094C5.56901 12.7539 5.29818 11.7308 5.12891 10.6401C4.95964 9.54937 4.875 8.36986 4.875 7.10157C4.875 6.01929 5.08659 5.05539 5.50977 4.20986C5.93294 3.36433 6.51693 2.68368 7.26172 2.16791C8.00651 1.65214 8.86133 1.26319 9.82617 1.00108C10.791 0.738967 11.849 0.60791 13 0.60791C14.151 0.60791 15.209 0.738967 16.1738 1.00108C17.1387 1.26319 17.9935 1.65214 18.7383 2.16791C19.4831 2.68368 20.0671 3.36433 20.4902 4.20986C20.9134 5.05539 21.125 6.01929 21.125 7.10157C21.125 13.0203 19.5 16.6222 16.25 17.9074V18.6938C19.0599 19.0658 21.3789 19.8225 23.207 20.964C25.0352 22.1055 25.9661 23.4203 26 24.9084Z" fill="black"/>
</g>
<defs>
<clipPath id="clip0">
<rect width="26" height="26" fill="white" transform="translate(0 0.60791)"/>
</clipPath>
</defs>
</svg>
