<svg width="26" height="27" viewBox="0 0 26 27" fill="none" xmlns="http://www.w3.org/2000/svg">
<g clip-path="url(#clip0)">
<path d="M26 25.1564C26 25.3594 25.8857 25.5454 25.6572 25.7145C25.4287 25.8836 25.0775 26.0231 24.6035 26.133C24.1296 26.2429 23.6429 26.3444 23.1436 26.4374C22.6442 26.5304 22.0052 26.6023 21.2266 26.653C20.4479 26.7038 19.7708 26.7418 19.1953 26.7672C18.6198 26.7925 17.8792 26.8137 16.9736 26.8306C16.068 26.8475 15.3825 26.856 14.917 26.856H11.083L9.02637 26.8306L6.80469 26.7672L4.77344 26.653L2.85645 26.4374L1.39648 26.133L0.342773 25.7145L0 25.1564C0.0338542 23.6683 0.964844 22.3535 2.79297 21.2121C4.62109 20.0706 6.9401 19.3138 9.75 18.9418V18.1047C8.86979 17.7158 8.10807 17.1662 7.46484 16.456C6.82161 15.7457 6.3138 14.9129 5.94141 13.9574C5.56901 13.002 5.29818 11.9789 5.12891 10.8882C4.95964 9.79742 4.875 8.61791 4.875 7.34962C4.875 6.26734 5.08659 5.30344 5.50977 4.45791C5.93294 3.61238 6.51693 2.93173 7.26172 2.41596C8.00651 1.90018 8.86133 1.51124 9.82617 1.24913C10.791 0.987014 11.849 0.855957 13 0.855957C14.151 0.855957 15.209 0.987014 16.1738 1.24913C17.1387 1.51124 17.9935 1.90018 18.7383 2.41596C19.4831 2.93173 20.0671 3.61238 20.4902 4.45791C20.9134 5.30344 21.125 6.26734 21.125 7.34962C21.125 13.2683 19.5 16.8703 16.25 18.1555V18.9418C19.0599 19.3138 21.3789 20.0706 23.207 21.2121C25.0352 22.3535 25.9661 23.6683 26 25.1564Z" fill="#054168"/>
</g>
<defs>
<clipPath id="clip0">
<rect width="26" height="26" fill="white" transform="translate(0 0.855957)"/>
</clipPath>
</defs>
</svg>
